%TF.GenerationSoftware,KiCad,Pcbnew,(5.1.6)-1*%
%TF.CreationDate,2023-06-25T00:19:37-07:00*%
%TF.ProjectId,tremolo,7472656d-6f6c-46f2-9e6b-696361645f70,rev?*%
%TF.SameCoordinates,Original*%
%TF.FileFunction,Copper,L1,Top*%
%TF.FilePolarity,Positive*%
%FSLAX46Y46*%
G04 Gerber Fmt 4.6, Leading zero omitted, Abs format (unit mm)*
G04 Created by KiCad (PCBNEW (5.1.6)-1) date 2023-06-25 00:19:37*
%MOMM*%
%LPD*%
G01*
G04 APERTURE LIST*
%TA.AperFunction,ComponentPad*%
%ADD10R,1.700000X1.700000*%
%TD*%
%TA.AperFunction,ComponentPad*%
%ADD11C,1.150000*%
%TD*%
%TA.AperFunction,ComponentPad*%
%ADD12R,1.600000X1.600000*%
%TD*%
%TA.AperFunction,ComponentPad*%
%ADD13C,1.600000*%
%TD*%
%TA.AperFunction,ComponentPad*%
%ADD14O,1.600000X1.600000*%
%TD*%
%TA.AperFunction,ComponentPad*%
%ADD15C,1.524000*%
%TD*%
%TA.AperFunction,ComponentPad*%
%ADD16O,1.700000X1.700000*%
%TD*%
%TA.AperFunction,WasherPad*%
%ADD17C,4.000000*%
%TD*%
%TA.AperFunction,ComponentPad*%
%ADD18C,1.800000*%
%TD*%
%TA.AperFunction,ComponentPad*%
%ADD19R,1.800000X1.800000*%
%TD*%
%TA.AperFunction,ViaPad*%
%ADD20C,0.800000*%
%TD*%
%TA.AperFunction,Conductor*%
%ADD21C,0.500000*%
%TD*%
%TA.AperFunction,Conductor*%
%ADD22C,0.254000*%
%TD*%
G04 APERTURE END LIST*
D10*
%TO.P,J5,1*%
%TO.N,/sig_out*%
X106000000Y-138500000D03*
%TD*%
%TO.P,J4,1*%
%TO.N,/sig_in*%
X77500000Y-137500000D03*
%TD*%
%TO.P,U3,1*%
%TO.N,Net-(D2-Pad1)*%
%TA.AperFunction,ComponentPad*%
G36*
G01*
X115712500Y-122925000D02*
X116287500Y-122925000D01*
G75*
G02*
X116575000Y-123212500I0J-287500D01*
G01*
X116575000Y-123787500D01*
G75*
G02*
X116287500Y-124075000I-287500J0D01*
G01*
X115712500Y-124075000D01*
G75*
G02*
X115425000Y-123787500I0J287500D01*
G01*
X115425000Y-123212500D01*
G75*
G02*
X115712500Y-122925000I287500J0D01*
G01*
G37*
%TD.AperFunction*%
D11*
%TO.P,U3,4*%
%TO.N,Net-(C11-Pad1)*%
X116640000Y-138500000D03*
%TO.P,U3,3*%
%TO.N,Net-(R30-Pad1)*%
X111560000Y-138500000D03*
%TO.P,U3,2*%
%TO.N,Net-(R21-Pad2)*%
X112200000Y-123500000D03*
%TD*%
D12*
%TO.P,C5,1*%
%TO.N,+9V*%
X70500000Y-128250000D03*
D13*
%TO.P,C5,2*%
%TO.N,GND*%
X70500000Y-133250000D03*
%TD*%
D14*
%TO.P,U4,8*%
%TO.N,+9V*%
X96620000Y-130000000D03*
%TO.P,U4,4*%
%TO.N,GND*%
X89000000Y-137620000D03*
%TO.P,U4,7*%
%TO.N,Net-(C10-Pad2)*%
X96620000Y-132540000D03*
%TO.P,U4,3*%
%TO.N,/+4V5*%
X89000000Y-135080000D03*
%TO.P,U4,6*%
%TO.N,Net-(C11-Pad1)*%
X96620000Y-135080000D03*
%TO.P,U4,2*%
%TO.N,Net-(R26-Pad1)*%
X89000000Y-132540000D03*
%TO.P,U4,5*%
%TO.N,/+4V5*%
X96620000Y-137620000D03*
D12*
%TO.P,U4,1*%
%TO.N,Net-(R30-Pad1)*%
X89000000Y-130000000D03*
%TD*%
D14*
%TO.P,U1,14*%
%TO.N,GND*%
X85000000Y-114880000D03*
%TO.P,U1,7*%
%TO.N,N/C*%
X100240000Y-122500000D03*
%TO.P,U1,13*%
%TO.N,/tempo*%
X87540000Y-114880000D03*
%TO.P,U1,6*%
%TO.N,/smoothing*%
X97700000Y-122500000D03*
%TO.P,U1,12*%
%TO.N,/waveform*%
X90080000Y-114880000D03*
%TO.P,U1,5*%
%TO.N,/lfo_pwm*%
X95160000Y-122500000D03*
%TO.P,U1,11*%
%TO.N,/multiplier*%
X92620000Y-114880000D03*
%TO.P,U1,4*%
%TO.N,/tap_in*%
X92620000Y-122500000D03*
%TO.P,U1,10*%
%TO.N,/level*%
X95160000Y-114880000D03*
%TO.P,U1,3*%
%TO.N,/wave_set*%
X90080000Y-122500000D03*
%TO.P,U1,9*%
%TO.N,/distort*%
X97700000Y-114880000D03*
%TO.P,U1,2*%
%TO.N,N/C*%
X87540000Y-122500000D03*
%TO.P,U1,8*%
X100240000Y-114880000D03*
D12*
%TO.P,U1,1*%
%TO.N,+5V*%
X85000000Y-122500000D03*
%TD*%
D15*
%TO.P,SW4,9*%
%TO.N,Net-(R24-Pad1)*%
X110500000Y-107650000D03*
%TO.P,SW4,7*%
%TO.N,Net-(R25-Pad2)*%
X103108964Y-108061467D03*
%TO.P,SW4,5*%
%TO.N,Net-(R22-Pad2)*%
X107438533Y-97608964D03*
%TO.P,SW4,3*%
%TO.N,Net-(R17-Pad2)*%
X117891036Y-101938533D03*
%TO.P,SW4,8*%
%TO.N,Net-(R27-Pad2)*%
X107438533Y-112391036D03*
%TO.P,SW4,6*%
%TO.N,Net-(R23-Pad2)*%
X103108964Y-101938533D03*
%TO.P,SW4,4*%
%TO.N,Net-(R20-Pad2)*%
X113561467Y-97608964D03*
%TO.P,SW4,2*%
%TO.N,Net-(R17-Pad2)*%
X117891036Y-108061467D03*
%TO.P,SW4,1*%
X113561467Y-112391036D03*
%TD*%
%TO.P,SW3,9*%
%TO.N,Net-(R11-Pad1)*%
X74500000Y-107650000D03*
%TO.P,SW3,7*%
%TO.N,Net-(R14-Pad1)*%
X67108964Y-108061467D03*
%TO.P,SW3,5*%
%TO.N,Net-(R12-Pad2)*%
X71438533Y-97608964D03*
%TO.P,SW3,3*%
%TO.N,Net-(R10-Pad1)*%
X81891036Y-101938533D03*
%TO.P,SW3,8*%
%TO.N,Net-(R15-Pad1)*%
X71438533Y-112391036D03*
%TO.P,SW3,6*%
%TO.N,Net-(R13-Pad2)*%
X67108964Y-101938533D03*
%TO.P,SW3,4*%
%TO.N,Net-(R10-Pad2)*%
X77561467Y-97608964D03*
%TO.P,SW3,2*%
%TO.N,Net-(R6-Pad2)*%
X81891036Y-108061467D03*
%TO.P,SW3,1*%
%TO.N,Net-(R4-Pad2)*%
X77561467Y-112391036D03*
%TD*%
D16*
%TO.P,SW1,2*%
%TO.N,GND*%
X70460000Y-137500000D03*
D10*
%TO.P,SW1,1*%
%TO.N,/tap_in*%
X73000000Y-137500000D03*
%TD*%
D17*
%TO.P,RV4,*%
%TO.N,*%
X87750000Y-105500000D03*
X97250000Y-105500000D03*
D18*
%TO.P,RV4,1*%
%TO.N,Net-(C10-Pad2)*%
X90000000Y-98000000D03*
%TO.P,RV4,2*%
X92500000Y-98000000D03*
%TO.P,RV4,3*%
%TO.N,Net-(C11-Pad1)*%
X95000000Y-98000000D03*
%TD*%
D17*
%TO.P,RV3,*%
%TO.N,*%
X105750000Y-90500000D03*
X115250000Y-90500000D03*
D18*
%TO.P,RV3,1*%
%TO.N,+5V*%
X108000000Y-83000000D03*
%TO.P,RV3,2*%
%TO.N,Net-(R3-Pad1)*%
X110500000Y-83000000D03*
%TO.P,RV3,3*%
%TO.N,GND*%
X113000000Y-83000000D03*
%TD*%
D17*
%TO.P,RV2,*%
%TO.N,*%
X87750000Y-90500000D03*
X97250000Y-90500000D03*
D18*
%TO.P,RV2,1*%
%TO.N,+5V*%
X90000000Y-83000000D03*
%TO.P,RV2,2*%
%TO.N,Net-(R2-Pad1)*%
X92500000Y-83000000D03*
%TO.P,RV2,3*%
%TO.N,GND*%
X95000000Y-83000000D03*
%TD*%
D17*
%TO.P,RV1,*%
%TO.N,*%
X69750000Y-90500000D03*
X79250000Y-90500000D03*
D18*
%TO.P,RV1,1*%
%TO.N,+5V*%
X72000000Y-83000000D03*
%TO.P,RV1,2*%
%TO.N,Net-(R1-Pad1)*%
X74500000Y-83000000D03*
%TO.P,RV1,3*%
%TO.N,GND*%
X77000000Y-83000000D03*
%TD*%
D10*
%TO.P,J1,1*%
%TO.N,/VIN*%
X77500000Y-129500000D03*
D16*
%TO.P,J1,2*%
%TO.N,GND*%
X77500000Y-132040000D03*
%TD*%
D18*
%TO.P,D2,2*%
%TO.N,Net-(D2-Pad2)*%
X116500000Y-117790000D03*
D19*
%TO.P,D2,1*%
%TO.N,Net-(D2-Pad1)*%
X116500000Y-115250000D03*
%TD*%
D20*
%TO.N,GND*%
X82000000Y-134000000D03*
X82000000Y-131000000D03*
X92500000Y-105000000D03*
X86000000Y-94000000D03*
X82000000Y-94000000D03*
X83500000Y-83000000D03*
X71750000Y-94000000D03*
X74000000Y-104000000D03*
X111000000Y-104000000D03*
X118500000Y-111000000D03*
X118500000Y-97000000D03*
X101000000Y-96500000D03*
X101000000Y-83000000D03*
X102500000Y-105000000D03*
X99500000Y-127000000D03*
X95500000Y-127000000D03*
X91500000Y-127000000D03*
X87500000Y-127000000D03*
X82000000Y-127000000D03*
X104000000Y-133000000D03*
X91000000Y-131500000D03*
X94750000Y-133750000D03*
X108000000Y-120000000D03*
X91000000Y-139000000D03*
X94750000Y-139000000D03*
X99000000Y-139000000D03*
X102000000Y-139000000D03*
X104000000Y-128500000D03*
X100750000Y-131000000D03*
X85500000Y-119000000D03*
X103000000Y-110500000D03*
X99500000Y-112000000D03*
X95500000Y-125000000D03*
X99500000Y-125000000D03*
X104000000Y-125000000D03*
X107000000Y-125000000D03*
X79000000Y-118250000D03*
%TO.N,+5V*%
X84000000Y-112000000D03*
%TO.N,/out*%
X82000000Y-139000000D03*
%TD*%
D21*
%TO.N,GND*%
X81960000Y-131040000D02*
X82000000Y-131000000D01*
X82000000Y-131000000D02*
X80960000Y-132040000D01*
X80960000Y-132040000D02*
X77500000Y-132040000D01*
%TO.N,+9V*%
X74750000Y-128250000D02*
X70500000Y-128250000D01*
X78500000Y-124500000D02*
X74750000Y-128250000D01*
X96620000Y-130000000D02*
X91120000Y-124500000D01*
X91120000Y-124500000D02*
X78500000Y-124500000D01*
%TO.N,+5V*%
X72000000Y-83000000D02*
X74000000Y-85000000D01*
X74000000Y-85000000D02*
X88000000Y-85000000D01*
X88000000Y-85000000D02*
X90000000Y-83000000D01*
X105949999Y-85050001D02*
X108000000Y-83000000D01*
X90000000Y-83000000D02*
X92050001Y-85050001D01*
X92050001Y-85050001D02*
X105949999Y-85050001D01*
X84000000Y-112000000D02*
X84000000Y-89000000D01*
X82500000Y-113500000D02*
X84000000Y-112000000D01*
X85000000Y-122500000D02*
X82500000Y-120000000D01*
X84000000Y-89000000D02*
X88000000Y-85000000D01*
X82500000Y-120000000D02*
X82500000Y-113500000D01*
%TO.N,Net-(C10-Pad2)*%
X92500000Y-98000000D02*
X90000000Y-98000000D01*
X102799989Y-126360011D02*
X96620000Y-132540000D01*
X102799989Y-114039954D02*
X102799989Y-126360011D01*
X94250000Y-99750000D02*
X95750000Y-99750000D01*
X95750000Y-99750000D02*
X100750000Y-104750000D01*
X100750000Y-111989965D02*
X102799989Y-114039954D01*
X92500000Y-98000000D02*
X94250000Y-99750000D01*
X100750000Y-104750000D02*
X100750000Y-111989965D01*
%TO.N,Net-(C11-Pad1)*%
X103500000Y-113750000D02*
X101450011Y-111700011D01*
X101450011Y-111700011D02*
X101450011Y-104450011D01*
X103500000Y-120000000D02*
X103500000Y-113750000D01*
X101450011Y-104450011D02*
X95000000Y-98000000D01*
X116640000Y-133140000D02*
X103500000Y-120000000D01*
X114720000Y-136580000D02*
X116640000Y-138500000D01*
X113720000Y-136580000D02*
X114720000Y-136580000D01*
X116640000Y-133140000D02*
X116640000Y-138500000D01*
X98420000Y-135080000D02*
X99920000Y-136580000D01*
X96620000Y-135080000D02*
X98420000Y-135080000D01*
X99920000Y-136580000D02*
X113720000Y-136580000D01*
%TD*%
D22*
%TO.N,GND*%
G36*
X117759659Y-81188625D02*
G01*
X118009429Y-81264035D01*
X118239792Y-81386522D01*
X118441980Y-81551422D01*
X118608286Y-81752450D01*
X118732378Y-81981954D01*
X118809531Y-82231195D01*
X118840000Y-82521088D01*
X118840000Y-100911842D01*
X118781571Y-100853413D01*
X118552763Y-100700528D01*
X118298526Y-100595219D01*
X118028628Y-100541533D01*
X117753444Y-100541533D01*
X117483546Y-100595219D01*
X117229309Y-100700528D01*
X117000501Y-100853413D01*
X116805916Y-101047998D01*
X116653031Y-101276806D01*
X116547722Y-101531043D01*
X116494036Y-101800941D01*
X116494036Y-102076125D01*
X116547722Y-102346023D01*
X116653031Y-102600260D01*
X116805916Y-102829068D01*
X117000501Y-103023653D01*
X117229309Y-103176538D01*
X117483546Y-103281847D01*
X117753444Y-103335533D01*
X118028628Y-103335533D01*
X118298526Y-103281847D01*
X118552763Y-103176538D01*
X118781571Y-103023653D01*
X118840000Y-102965224D01*
X118840000Y-107034776D01*
X118781571Y-106976347D01*
X118552763Y-106823462D01*
X118298526Y-106718153D01*
X118028628Y-106664467D01*
X117753444Y-106664467D01*
X117483546Y-106718153D01*
X117229309Y-106823462D01*
X117000501Y-106976347D01*
X116805916Y-107170932D01*
X116653031Y-107399740D01*
X116547722Y-107653977D01*
X116494036Y-107923875D01*
X116494036Y-108199059D01*
X116547722Y-108468957D01*
X116653031Y-108723194D01*
X116805916Y-108952002D01*
X117000501Y-109146587D01*
X117229309Y-109299472D01*
X117483546Y-109404781D01*
X117753444Y-109458467D01*
X118028628Y-109458467D01*
X118298526Y-109404781D01*
X118552763Y-109299472D01*
X118781571Y-109146587D01*
X118840000Y-109088158D01*
X118840001Y-125373000D01*
X110124578Y-125373000D01*
X108132403Y-123380825D01*
X110990000Y-123380825D01*
X110990000Y-123619175D01*
X111036499Y-123852944D01*
X111127712Y-124073150D01*
X111260131Y-124271330D01*
X111428670Y-124439869D01*
X111626850Y-124572288D01*
X111847056Y-124663501D01*
X112080825Y-124710000D01*
X112319175Y-124710000D01*
X112552944Y-124663501D01*
X112773150Y-124572288D01*
X112971330Y-124439869D01*
X113139869Y-124271330D01*
X113272288Y-124073150D01*
X113363501Y-123852944D01*
X113410000Y-123619175D01*
X113410000Y-123380825D01*
X113376519Y-123212500D01*
X114786928Y-123212500D01*
X114786928Y-123787500D01*
X114804713Y-123968070D01*
X114857383Y-124141701D01*
X114942915Y-124301720D01*
X115058022Y-124441978D01*
X115198280Y-124557085D01*
X115358299Y-124642617D01*
X115531930Y-124695287D01*
X115712500Y-124713072D01*
X116287500Y-124713072D01*
X116468070Y-124695287D01*
X116641701Y-124642617D01*
X116801720Y-124557085D01*
X116941978Y-124441978D01*
X117057085Y-124301720D01*
X117142617Y-124141701D01*
X117195287Y-123968070D01*
X117213072Y-123787500D01*
X117213072Y-123212500D01*
X117195287Y-123031930D01*
X117142617Y-122858299D01*
X117057085Y-122698280D01*
X116941978Y-122558022D01*
X116801720Y-122442915D01*
X116641701Y-122357383D01*
X116468070Y-122304713D01*
X116287500Y-122286928D01*
X115712500Y-122286928D01*
X115531930Y-122304713D01*
X115358299Y-122357383D01*
X115198280Y-122442915D01*
X115058022Y-122558022D01*
X114942915Y-122698280D01*
X114857383Y-122858299D01*
X114804713Y-123031930D01*
X114786928Y-123212500D01*
X113376519Y-123212500D01*
X113363501Y-123147056D01*
X113272288Y-122926850D01*
X113139869Y-122728670D01*
X112971330Y-122560131D01*
X112773150Y-122427712D01*
X112552944Y-122336499D01*
X112319175Y-122290000D01*
X112080825Y-122290000D01*
X111847056Y-122336499D01*
X111626850Y-122427712D01*
X111428670Y-122560131D01*
X111260131Y-122728670D01*
X111127712Y-122926850D01*
X111036499Y-123147056D01*
X110990000Y-123380825D01*
X108132403Y-123380825D01*
X104385000Y-119633422D01*
X104385000Y-114350000D01*
X114961928Y-114350000D01*
X114961928Y-116150000D01*
X114974188Y-116274482D01*
X115010498Y-116394180D01*
X115069463Y-116504494D01*
X115148815Y-116601185D01*
X115245506Y-116680537D01*
X115355820Y-116739502D01*
X115374127Y-116745056D01*
X115307688Y-116811495D01*
X115139701Y-117062905D01*
X115023989Y-117342257D01*
X114965000Y-117638816D01*
X114965000Y-117941184D01*
X115023989Y-118237743D01*
X115139701Y-118517095D01*
X115307688Y-118768505D01*
X115521495Y-118982312D01*
X115772905Y-119150299D01*
X116052257Y-119266011D01*
X116348816Y-119325000D01*
X116651184Y-119325000D01*
X116947743Y-119266011D01*
X117227095Y-119150299D01*
X117478505Y-118982312D01*
X117692312Y-118768505D01*
X117860299Y-118517095D01*
X117976011Y-118237743D01*
X118035000Y-117941184D01*
X118035000Y-117638816D01*
X117976011Y-117342257D01*
X117860299Y-117062905D01*
X117692312Y-116811495D01*
X117625873Y-116745056D01*
X117644180Y-116739502D01*
X117754494Y-116680537D01*
X117851185Y-116601185D01*
X117930537Y-116504494D01*
X117989502Y-116394180D01*
X118025812Y-116274482D01*
X118038072Y-116150000D01*
X118038072Y-114350000D01*
X118025812Y-114225518D01*
X117989502Y-114105820D01*
X117930537Y-113995506D01*
X117851185Y-113898815D01*
X117754494Y-113819463D01*
X117644180Y-113760498D01*
X117524482Y-113724188D01*
X117400000Y-113711928D01*
X115600000Y-113711928D01*
X115475518Y-113724188D01*
X115355820Y-113760498D01*
X115245506Y-113819463D01*
X115148815Y-113898815D01*
X115069463Y-113995506D01*
X115010498Y-114105820D01*
X114974188Y-114225518D01*
X114961928Y-114350000D01*
X104385000Y-114350000D01*
X104385000Y-113793465D01*
X104389281Y-113749999D01*
X104385000Y-113706533D01*
X104385000Y-113706523D01*
X104372195Y-113576510D01*
X104321589Y-113409687D01*
X104239411Y-113255941D01*
X104208573Y-113218365D01*
X104156532Y-113154953D01*
X104156530Y-113154951D01*
X104128817Y-113121183D01*
X104095049Y-113093470D01*
X103255023Y-112253444D01*
X106041533Y-112253444D01*
X106041533Y-112528628D01*
X106095219Y-112798526D01*
X106200528Y-113052763D01*
X106353413Y-113281571D01*
X106547998Y-113476156D01*
X106776806Y-113629041D01*
X107031043Y-113734350D01*
X107300941Y-113788036D01*
X107576125Y-113788036D01*
X107846023Y-113734350D01*
X108100260Y-113629041D01*
X108329068Y-113476156D01*
X108523653Y-113281571D01*
X108676538Y-113052763D01*
X108781847Y-112798526D01*
X108835533Y-112528628D01*
X108835533Y-112253444D01*
X112164467Y-112253444D01*
X112164467Y-112528628D01*
X112218153Y-112798526D01*
X112323462Y-113052763D01*
X112476347Y-113281571D01*
X112670932Y-113476156D01*
X112899740Y-113629041D01*
X113153977Y-113734350D01*
X113423875Y-113788036D01*
X113699059Y-113788036D01*
X113968957Y-113734350D01*
X114223194Y-113629041D01*
X114452002Y-113476156D01*
X114646587Y-113281571D01*
X114799472Y-113052763D01*
X114904781Y-112798526D01*
X114958467Y-112528628D01*
X114958467Y-112253444D01*
X114904781Y-111983546D01*
X114799472Y-111729309D01*
X114646587Y-111500501D01*
X114452002Y-111305916D01*
X114223194Y-111153031D01*
X113968957Y-111047722D01*
X113699059Y-110994036D01*
X113423875Y-110994036D01*
X113153977Y-111047722D01*
X112899740Y-111153031D01*
X112670932Y-111305916D01*
X112476347Y-111500501D01*
X112323462Y-111729309D01*
X112218153Y-111983546D01*
X112164467Y-112253444D01*
X108835533Y-112253444D01*
X108781847Y-111983546D01*
X108676538Y-111729309D01*
X108523653Y-111500501D01*
X108329068Y-111305916D01*
X108100260Y-111153031D01*
X107846023Y-111047722D01*
X107576125Y-110994036D01*
X107300941Y-110994036D01*
X107031043Y-111047722D01*
X106776806Y-111153031D01*
X106547998Y-111305916D01*
X106353413Y-111500501D01*
X106200528Y-111729309D01*
X106095219Y-111983546D01*
X106041533Y-112253444D01*
X103255023Y-112253444D01*
X102335011Y-111333433D01*
X102335011Y-109224485D01*
X102447237Y-109299472D01*
X102701474Y-109404781D01*
X102971372Y-109458467D01*
X103246556Y-109458467D01*
X103516454Y-109404781D01*
X103770691Y-109299472D01*
X103999499Y-109146587D01*
X104194084Y-108952002D01*
X104346969Y-108723194D01*
X104452278Y-108468957D01*
X104505964Y-108199059D01*
X104505964Y-107923875D01*
X104452278Y-107653977D01*
X104393638Y-107512408D01*
X109103000Y-107512408D01*
X109103000Y-107787592D01*
X109156686Y-108057490D01*
X109261995Y-108311727D01*
X109414880Y-108540535D01*
X109609465Y-108735120D01*
X109838273Y-108888005D01*
X110092510Y-108993314D01*
X110362408Y-109047000D01*
X110637592Y-109047000D01*
X110907490Y-108993314D01*
X111161727Y-108888005D01*
X111390535Y-108735120D01*
X111585120Y-108540535D01*
X111738005Y-108311727D01*
X111843314Y-108057490D01*
X111897000Y-107787592D01*
X111897000Y-107512408D01*
X111843314Y-107242510D01*
X111738005Y-106988273D01*
X111585120Y-106759465D01*
X111390535Y-106564880D01*
X111161727Y-106411995D01*
X110907490Y-106306686D01*
X110637592Y-106253000D01*
X110362408Y-106253000D01*
X110092510Y-106306686D01*
X109838273Y-106411995D01*
X109609465Y-106564880D01*
X109414880Y-106759465D01*
X109261995Y-106988273D01*
X109156686Y-107242510D01*
X109103000Y-107512408D01*
X104393638Y-107512408D01*
X104346969Y-107399740D01*
X104194084Y-107170932D01*
X103999499Y-106976347D01*
X103770691Y-106823462D01*
X103516454Y-106718153D01*
X103246556Y-106664467D01*
X102971372Y-106664467D01*
X102701474Y-106718153D01*
X102447237Y-106823462D01*
X102335011Y-106898449D01*
X102335011Y-104493477D01*
X102339292Y-104450010D01*
X102335011Y-104406544D01*
X102335011Y-104406534D01*
X102322206Y-104276521D01*
X102271600Y-104109698D01*
X102189422Y-103955952D01*
X102078828Y-103821194D01*
X102045060Y-103793481D01*
X100052520Y-101800941D01*
X101711964Y-101800941D01*
X101711964Y-102076125D01*
X101765650Y-102346023D01*
X101870959Y-102600260D01*
X102023844Y-102829068D01*
X102218429Y-103023653D01*
X102447237Y-103176538D01*
X102701474Y-103281847D01*
X102971372Y-103335533D01*
X103246556Y-103335533D01*
X103516454Y-103281847D01*
X103770691Y-103176538D01*
X103999499Y-103023653D01*
X104194084Y-102829068D01*
X104346969Y-102600260D01*
X104452278Y-102346023D01*
X104505964Y-102076125D01*
X104505964Y-101800941D01*
X104452278Y-101531043D01*
X104346969Y-101276806D01*
X104194084Y-101047998D01*
X103999499Y-100853413D01*
X103770691Y-100700528D01*
X103516454Y-100595219D01*
X103246556Y-100541533D01*
X102971372Y-100541533D01*
X102701474Y-100595219D01*
X102447237Y-100700528D01*
X102218429Y-100853413D01*
X102023844Y-101047998D01*
X101870959Y-101276806D01*
X101765650Y-101531043D01*
X101711964Y-101800941D01*
X100052520Y-101800941D01*
X96513060Y-98261482D01*
X96535000Y-98151184D01*
X96535000Y-97848816D01*
X96476011Y-97552257D01*
X96442508Y-97471372D01*
X106041533Y-97471372D01*
X106041533Y-97746556D01*
X106095219Y-98016454D01*
X106200528Y-98270691D01*
X106353413Y-98499499D01*
X106547998Y-98694084D01*
X106776806Y-98846969D01*
X107031043Y-98952278D01*
X107300941Y-99005964D01*
X107576125Y-99005964D01*
X107846023Y-98952278D01*
X108100260Y-98846969D01*
X108329068Y-98694084D01*
X108523653Y-98499499D01*
X108676538Y-98270691D01*
X108781847Y-98016454D01*
X108835533Y-97746556D01*
X108835533Y-97471372D01*
X112164467Y-97471372D01*
X112164467Y-97746556D01*
X112218153Y-98016454D01*
X112323462Y-98270691D01*
X112476347Y-98499499D01*
X112670932Y-98694084D01*
X112899740Y-98846969D01*
X113153977Y-98952278D01*
X113423875Y-99005964D01*
X113699059Y-99005964D01*
X113968957Y-98952278D01*
X114223194Y-98846969D01*
X114452002Y-98694084D01*
X114646587Y-98499499D01*
X114799472Y-98270691D01*
X114904781Y-98016454D01*
X114958467Y-97746556D01*
X114958467Y-97471372D01*
X114904781Y-97201474D01*
X114799472Y-96947237D01*
X114646587Y-96718429D01*
X114452002Y-96523844D01*
X114223194Y-96370959D01*
X113968957Y-96265650D01*
X113699059Y-96211964D01*
X113423875Y-96211964D01*
X113153977Y-96265650D01*
X112899740Y-96370959D01*
X112670932Y-96523844D01*
X112476347Y-96718429D01*
X112323462Y-96947237D01*
X112218153Y-97201474D01*
X112164467Y-97471372D01*
X108835533Y-97471372D01*
X108781847Y-97201474D01*
X108676538Y-96947237D01*
X108523653Y-96718429D01*
X108329068Y-96523844D01*
X108100260Y-96370959D01*
X107846023Y-96265650D01*
X107576125Y-96211964D01*
X107300941Y-96211964D01*
X107031043Y-96265650D01*
X106776806Y-96370959D01*
X106547998Y-96523844D01*
X106353413Y-96718429D01*
X106200528Y-96947237D01*
X106095219Y-97201474D01*
X106041533Y-97471372D01*
X96442508Y-97471372D01*
X96360299Y-97272905D01*
X96192312Y-97021495D01*
X95978505Y-96807688D01*
X95727095Y-96639701D01*
X95447743Y-96523989D01*
X95151184Y-96465000D01*
X94848816Y-96465000D01*
X94552257Y-96523989D01*
X94272905Y-96639701D01*
X94021495Y-96807688D01*
X93807688Y-97021495D01*
X93750000Y-97107831D01*
X93692312Y-97021495D01*
X93478505Y-96807688D01*
X93227095Y-96639701D01*
X92947743Y-96523989D01*
X92651184Y-96465000D01*
X92348816Y-96465000D01*
X92052257Y-96523989D01*
X91772905Y-96639701D01*
X91521495Y-96807688D01*
X91307688Y-97021495D01*
X91250000Y-97107831D01*
X91192312Y-97021495D01*
X90978505Y-96807688D01*
X90727095Y-96639701D01*
X90447743Y-96523989D01*
X90151184Y-96465000D01*
X89848816Y-96465000D01*
X89552257Y-96523989D01*
X89272905Y-96639701D01*
X89021495Y-96807688D01*
X88807688Y-97021495D01*
X88639701Y-97272905D01*
X88523989Y-97552257D01*
X88465000Y-97848816D01*
X88465000Y-98151184D01*
X88523989Y-98447743D01*
X88639701Y-98727095D01*
X88807688Y-98978505D01*
X89021495Y-99192312D01*
X89272905Y-99360299D01*
X89552257Y-99476011D01*
X89848816Y-99535000D01*
X90151184Y-99535000D01*
X90447743Y-99476011D01*
X90727095Y-99360299D01*
X90978505Y-99192312D01*
X91192312Y-98978505D01*
X91250000Y-98892169D01*
X91307688Y-98978505D01*
X91521495Y-99192312D01*
X91772905Y-99360299D01*
X92052257Y-99476011D01*
X92348816Y-99535000D01*
X92651184Y-99535000D01*
X92761482Y-99513060D01*
X93593470Y-100345049D01*
X93621183Y-100378817D01*
X93654951Y-100406530D01*
X93654953Y-100406532D01*
X93755941Y-100489411D01*
X93909687Y-100571589D01*
X94076510Y-100622195D01*
X94206523Y-100635000D01*
X94206531Y-100635000D01*
X94250000Y-100639281D01*
X94293469Y-100635000D01*
X95383422Y-100635000D01*
X97639219Y-102890798D01*
X97509525Y-102865000D01*
X96990475Y-102865000D01*
X96481399Y-102966261D01*
X96001859Y-103164893D01*
X95570285Y-103453262D01*
X95203262Y-103820285D01*
X94914893Y-104251859D01*
X94716261Y-104731399D01*
X94615000Y-105240475D01*
X94615000Y-105759525D01*
X94716261Y-106268601D01*
X94914893Y-106748141D01*
X95203262Y-107179715D01*
X95570285Y-107546738D01*
X96001859Y-107835107D01*
X96481399Y-108033739D01*
X96990475Y-108135000D01*
X97509525Y-108135000D01*
X98018601Y-108033739D01*
X98498141Y-107835107D01*
X98929715Y-107546738D01*
X99296738Y-107179715D01*
X99585107Y-106748141D01*
X99783739Y-106268601D01*
X99865000Y-105860072D01*
X99865001Y-111946486D01*
X99860719Y-111989965D01*
X99877805Y-112163455D01*
X99928412Y-112330278D01*
X100010590Y-112484024D01*
X100093468Y-112585011D01*
X100093471Y-112585014D01*
X100121184Y-112618782D01*
X100154951Y-112646494D01*
X101914989Y-114406533D01*
X101914990Y-125373000D01*
X93244578Y-125373000D01*
X91776534Y-123904956D01*
X91748817Y-123871183D01*
X91614059Y-123760589D01*
X91460313Y-123678411D01*
X91293490Y-123627805D01*
X91163477Y-123615000D01*
X91163469Y-123615000D01*
X91120000Y-123610719D01*
X91076531Y-123615000D01*
X90994216Y-123615000D01*
X90994759Y-123614637D01*
X91194637Y-123414759D01*
X91350000Y-123182241D01*
X91505363Y-123414759D01*
X91705241Y-123614637D01*
X91940273Y-123771680D01*
X92201426Y-123879853D01*
X92478665Y-123935000D01*
X92761335Y-123935000D01*
X93038574Y-123879853D01*
X93299727Y-123771680D01*
X93534759Y-123614637D01*
X93734637Y-123414759D01*
X93890000Y-123182241D01*
X94045363Y-123414759D01*
X94245241Y-123614637D01*
X94480273Y-123771680D01*
X94741426Y-123879853D01*
X95018665Y-123935000D01*
X95301335Y-123935000D01*
X95578574Y-123879853D01*
X95839727Y-123771680D01*
X96074759Y-123614637D01*
X96274637Y-123414759D01*
X96430000Y-123182241D01*
X96585363Y-123414759D01*
X96785241Y-123614637D01*
X97020273Y-123771680D01*
X97281426Y-123879853D01*
X97558665Y-123935000D01*
X97841335Y-123935000D01*
X98118574Y-123879853D01*
X98379727Y-123771680D01*
X98614759Y-123614637D01*
X98814637Y-123414759D01*
X98970000Y-123182241D01*
X99125363Y-123414759D01*
X99325241Y-123614637D01*
X99560273Y-123771680D01*
X99821426Y-123879853D01*
X100098665Y-123935000D01*
X100381335Y-123935000D01*
X100658574Y-123879853D01*
X100919727Y-123771680D01*
X101154759Y-123614637D01*
X101354637Y-123414759D01*
X101511680Y-123179727D01*
X101619853Y-122918574D01*
X101675000Y-122641335D01*
X101675000Y-122358665D01*
X101619853Y-122081426D01*
X101511680Y-121820273D01*
X101354637Y-121585241D01*
X101154759Y-121385363D01*
X100919727Y-121228320D01*
X100658574Y-121120147D01*
X100381335Y-121065000D01*
X100098665Y-121065000D01*
X99821426Y-121120147D01*
X99560273Y-121228320D01*
X99325241Y-121385363D01*
X99125363Y-121585241D01*
X98970000Y-121817759D01*
X98814637Y-121585241D01*
X98614759Y-121385363D01*
X98379727Y-121228320D01*
X98118574Y-121120147D01*
X97841335Y-121065000D01*
X97558665Y-121065000D01*
X97281426Y-121120147D01*
X97020273Y-121228320D01*
X96785241Y-121385363D01*
X96585363Y-121585241D01*
X96430000Y-121817759D01*
X96274637Y-121585241D01*
X96074759Y-121385363D01*
X95839727Y-121228320D01*
X95578574Y-121120147D01*
X95301335Y-121065000D01*
X95018665Y-121065000D01*
X94741426Y-121120147D01*
X94480273Y-121228320D01*
X94245241Y-121385363D01*
X94045363Y-121585241D01*
X93890000Y-121817759D01*
X93734637Y-121585241D01*
X93534759Y-121385363D01*
X93299727Y-121228320D01*
X93038574Y-121120147D01*
X92761335Y-121065000D01*
X92478665Y-121065000D01*
X92201426Y-121120147D01*
X91940273Y-121228320D01*
X91705241Y-121385363D01*
X91505363Y-121585241D01*
X91350000Y-121817759D01*
X91194637Y-121585241D01*
X90994759Y-121385363D01*
X90759727Y-121228320D01*
X90498574Y-121120147D01*
X90221335Y-121065000D01*
X89938665Y-121065000D01*
X89661426Y-121120147D01*
X89400273Y-121228320D01*
X89165241Y-121385363D01*
X88965363Y-121585241D01*
X88810000Y-121817759D01*
X88654637Y-121585241D01*
X88454759Y-121385363D01*
X88219727Y-121228320D01*
X87958574Y-121120147D01*
X87681335Y-121065000D01*
X87398665Y-121065000D01*
X87121426Y-121120147D01*
X86860273Y-121228320D01*
X86625241Y-121385363D01*
X86426643Y-121583961D01*
X86425812Y-121575518D01*
X86389502Y-121455820D01*
X86330537Y-121345506D01*
X86251185Y-121248815D01*
X86154494Y-121169463D01*
X86044180Y-121110498D01*
X85924482Y-121074188D01*
X85800000Y-121061928D01*
X84813507Y-121061928D01*
X83385000Y-119633422D01*
X83385000Y-115229040D01*
X83608091Y-115229040D01*
X83702930Y-115493881D01*
X83847615Y-115735131D01*
X84036586Y-115943519D01*
X84262580Y-116111037D01*
X84516913Y-116231246D01*
X84650961Y-116271904D01*
X84873000Y-116149915D01*
X84873000Y-115007000D01*
X83729376Y-115007000D01*
X83608091Y-115229040D01*
X83385000Y-115229040D01*
X83385000Y-114530960D01*
X83608091Y-114530960D01*
X83729376Y-114753000D01*
X84873000Y-114753000D01*
X84873000Y-113610085D01*
X85127000Y-113610085D01*
X85127000Y-114753000D01*
X85147000Y-114753000D01*
X85147000Y-115007000D01*
X85127000Y-115007000D01*
X85127000Y-116149915D01*
X85349039Y-116271904D01*
X85483087Y-116231246D01*
X85737420Y-116111037D01*
X85963414Y-115943519D01*
X86152385Y-115735131D01*
X86263933Y-115549135D01*
X86268320Y-115559727D01*
X86425363Y-115794759D01*
X86625241Y-115994637D01*
X86860273Y-116151680D01*
X87121426Y-116259853D01*
X87398665Y-116315000D01*
X87681335Y-116315000D01*
X87958574Y-116259853D01*
X88219727Y-116151680D01*
X88454759Y-115994637D01*
X88654637Y-115794759D01*
X88810000Y-115562241D01*
X88965363Y-115794759D01*
X89165241Y-115994637D01*
X89400273Y-116151680D01*
X89661426Y-116259853D01*
X89938665Y-116315000D01*
X90221335Y-116315000D01*
X90498574Y-116259853D01*
X90759727Y-116151680D01*
X90994759Y-115994637D01*
X91194637Y-115794759D01*
X91350000Y-115562241D01*
X91505363Y-115794759D01*
X91705241Y-115994637D01*
X91940273Y-116151680D01*
X92201426Y-116259853D01*
X92478665Y-116315000D01*
X92761335Y-116315000D01*
X93038574Y-116259853D01*
X93299727Y-116151680D01*
X93534759Y-115994637D01*
X93734637Y-115794759D01*
X93890000Y-115562241D01*
X94045363Y-115794759D01*
X94245241Y-115994637D01*
X94480273Y-116151680D01*
X94741426Y-116259853D01*
X95018665Y-116315000D01*
X95301335Y-116315000D01*
X95578574Y-116259853D01*
X95839727Y-116151680D01*
X96074759Y-115994637D01*
X96274637Y-115794759D01*
X96430000Y-115562241D01*
X96585363Y-115794759D01*
X96785241Y-115994637D01*
X97020273Y-116151680D01*
X97281426Y-116259853D01*
X97558665Y-116315000D01*
X97841335Y-116315000D01*
X98118574Y-116259853D01*
X98379727Y-116151680D01*
X98614759Y-115994637D01*
X98814637Y-115794759D01*
X98970000Y-115562241D01*
X99125363Y-115794759D01*
X99325241Y-115994637D01*
X99560273Y-116151680D01*
X99821426Y-116259853D01*
X100098665Y-116315000D01*
X100381335Y-116315000D01*
X100658574Y-116259853D01*
X100919727Y-116151680D01*
X101154759Y-115994637D01*
X101354637Y-115794759D01*
X101511680Y-115559727D01*
X101619853Y-115298574D01*
X101675000Y-115021335D01*
X101675000Y-114738665D01*
X101619853Y-114461426D01*
X101511680Y-114200273D01*
X101354637Y-113965241D01*
X101154759Y-113765363D01*
X100919727Y-113608320D01*
X100658574Y-113500147D01*
X100381335Y-113445000D01*
X100098665Y-113445000D01*
X99821426Y-113500147D01*
X99560273Y-113608320D01*
X99325241Y-113765363D01*
X99125363Y-113965241D01*
X98970000Y-114197759D01*
X98814637Y-113965241D01*
X98614759Y-113765363D01*
X98379727Y-113608320D01*
X98118574Y-113500147D01*
X97841335Y-113445000D01*
X97558665Y-113445000D01*
X97281426Y-113500147D01*
X97020273Y-113608320D01*
X96785241Y-113765363D01*
X96585363Y-113965241D01*
X96430000Y-114197759D01*
X96274637Y-113965241D01*
X96074759Y-113765363D01*
X95839727Y-113608320D01*
X95578574Y-113500147D01*
X95301335Y-113445000D01*
X95018665Y-113445000D01*
X94741426Y-113500147D01*
X94480273Y-113608320D01*
X94245241Y-113765363D01*
X94045363Y-113965241D01*
X93890000Y-114197759D01*
X93734637Y-113965241D01*
X93534759Y-113765363D01*
X93299727Y-113608320D01*
X93038574Y-113500147D01*
X92761335Y-113445000D01*
X92478665Y-113445000D01*
X92201426Y-113500147D01*
X91940273Y-113608320D01*
X91705241Y-113765363D01*
X91505363Y-113965241D01*
X91350000Y-114197759D01*
X91194637Y-113965241D01*
X90994759Y-113765363D01*
X90759727Y-113608320D01*
X90498574Y-113500147D01*
X90221335Y-113445000D01*
X89938665Y-113445000D01*
X89661426Y-113500147D01*
X89400273Y-113608320D01*
X89165241Y-113765363D01*
X88965363Y-113965241D01*
X88810000Y-114197759D01*
X88654637Y-113965241D01*
X88454759Y-113765363D01*
X88219727Y-113608320D01*
X87958574Y-113500147D01*
X87681335Y-113445000D01*
X87398665Y-113445000D01*
X87121426Y-113500147D01*
X86860273Y-113608320D01*
X86625241Y-113765363D01*
X86425363Y-113965241D01*
X86268320Y-114200273D01*
X86263933Y-114210865D01*
X86152385Y-114024869D01*
X85963414Y-113816481D01*
X85737420Y-113648963D01*
X85483087Y-113528754D01*
X85349039Y-113488096D01*
X85127000Y-113610085D01*
X84873000Y-113610085D01*
X84650961Y-113488096D01*
X84516913Y-113528754D01*
X84262580Y-113648963D01*
X84036586Y-113816481D01*
X83847615Y-114024869D01*
X83702930Y-114266119D01*
X83608091Y-114530960D01*
X83385000Y-114530960D01*
X83385000Y-113866578D01*
X84245044Y-113006535D01*
X84301898Y-112995226D01*
X84490256Y-112917205D01*
X84659774Y-112803937D01*
X84803937Y-112659774D01*
X84917205Y-112490256D01*
X84995226Y-112301898D01*
X85035000Y-112101939D01*
X85035000Y-111898061D01*
X84995226Y-111698102D01*
X84917205Y-111509744D01*
X84885000Y-111461546D01*
X84885000Y-105240475D01*
X85115000Y-105240475D01*
X85115000Y-105759525D01*
X85216261Y-106268601D01*
X85414893Y-106748141D01*
X85703262Y-107179715D01*
X86070285Y-107546738D01*
X86501859Y-107835107D01*
X86981399Y-108033739D01*
X87490475Y-108135000D01*
X88009525Y-108135000D01*
X88518601Y-108033739D01*
X88998141Y-107835107D01*
X89429715Y-107546738D01*
X89796738Y-107179715D01*
X90085107Y-106748141D01*
X90283739Y-106268601D01*
X90385000Y-105759525D01*
X90385000Y-105240475D01*
X90283739Y-104731399D01*
X90085107Y-104251859D01*
X89796738Y-103820285D01*
X89429715Y-103453262D01*
X88998141Y-103164893D01*
X88518601Y-102966261D01*
X88009525Y-102865000D01*
X87490475Y-102865000D01*
X86981399Y-102966261D01*
X86501859Y-103164893D01*
X86070285Y-103453262D01*
X85703262Y-103820285D01*
X85414893Y-104251859D01*
X85216261Y-104731399D01*
X85115000Y-105240475D01*
X84885000Y-105240475D01*
X84885000Y-90240475D01*
X85115000Y-90240475D01*
X85115000Y-90759525D01*
X85216261Y-91268601D01*
X85414893Y-91748141D01*
X85703262Y-92179715D01*
X86070285Y-92546738D01*
X86501859Y-92835107D01*
X86981399Y-93033739D01*
X87490475Y-93135000D01*
X88009525Y-93135000D01*
X88518601Y-93033739D01*
X88998141Y-92835107D01*
X89429715Y-92546738D01*
X89796738Y-92179715D01*
X90085107Y-91748141D01*
X90283739Y-91268601D01*
X90385000Y-90759525D01*
X90385000Y-90240475D01*
X94615000Y-90240475D01*
X94615000Y-90759525D01*
X94716261Y-91268601D01*
X94914893Y-91748141D01*
X95203262Y-92179715D01*
X95570285Y-92546738D01*
X96001859Y-92835107D01*
X96481399Y-93033739D01*
X96990475Y-93135000D01*
X97509525Y-93135000D01*
X98018601Y-93033739D01*
X98498141Y-92835107D01*
X98929715Y-92546738D01*
X99296738Y-92179715D01*
X99585107Y-91748141D01*
X99783739Y-91268601D01*
X99885000Y-90759525D01*
X99885000Y-90240475D01*
X103115000Y-90240475D01*
X103115000Y-90759525D01*
X103216261Y-91268601D01*
X103414893Y-91748141D01*
X103703262Y-92179715D01*
X104070285Y-92546738D01*
X104501859Y-92835107D01*
X104981399Y-93033739D01*
X105490475Y-93135000D01*
X106009525Y-93135000D01*
X106518601Y-93033739D01*
X106998141Y-92835107D01*
X107429715Y-92546738D01*
X107796738Y-92179715D01*
X108085107Y-91748141D01*
X108283739Y-91268601D01*
X108385000Y-90759525D01*
X108385000Y-90240475D01*
X112615000Y-90240475D01*
X112615000Y-90759525D01*
X112716261Y-91268601D01*
X112914893Y-91748141D01*
X113203262Y-92179715D01*
X113570285Y-92546738D01*
X114001859Y-92835107D01*
X114481399Y-93033739D01*
X114990475Y-93135000D01*
X115509525Y-93135000D01*
X116018601Y-93033739D01*
X116498141Y-92835107D01*
X116929715Y-92546738D01*
X117296738Y-92179715D01*
X117585107Y-91748141D01*
X117783739Y-91268601D01*
X117885000Y-90759525D01*
X117885000Y-90240475D01*
X117783739Y-89731399D01*
X117585107Y-89251859D01*
X117296738Y-88820285D01*
X116929715Y-88453262D01*
X116498141Y-88164893D01*
X116018601Y-87966261D01*
X115509525Y-87865000D01*
X114990475Y-87865000D01*
X114481399Y-87966261D01*
X114001859Y-88164893D01*
X113570285Y-88453262D01*
X113203262Y-88820285D01*
X112914893Y-89251859D01*
X112716261Y-89731399D01*
X112615000Y-90240475D01*
X108385000Y-90240475D01*
X108283739Y-89731399D01*
X108085107Y-89251859D01*
X107796738Y-88820285D01*
X107429715Y-88453262D01*
X106998141Y-88164893D01*
X106518601Y-87966261D01*
X106009525Y-87865000D01*
X105490475Y-87865000D01*
X104981399Y-87966261D01*
X104501859Y-88164893D01*
X104070285Y-88453262D01*
X103703262Y-88820285D01*
X103414893Y-89251859D01*
X103216261Y-89731399D01*
X103115000Y-90240475D01*
X99885000Y-90240475D01*
X99783739Y-89731399D01*
X99585107Y-89251859D01*
X99296738Y-88820285D01*
X98929715Y-88453262D01*
X98498141Y-88164893D01*
X98018601Y-87966261D01*
X97509525Y-87865000D01*
X96990475Y-87865000D01*
X96481399Y-87966261D01*
X96001859Y-88164893D01*
X95570285Y-88453262D01*
X95203262Y-88820285D01*
X94914893Y-89251859D01*
X94716261Y-89731399D01*
X94615000Y-90240475D01*
X90385000Y-90240475D01*
X90283739Y-89731399D01*
X90085107Y-89251859D01*
X89796738Y-88820285D01*
X89429715Y-88453262D01*
X88998141Y-88164893D01*
X88518601Y-87966261D01*
X88009525Y-87865000D01*
X87490475Y-87865000D01*
X86981399Y-87966261D01*
X86501859Y-88164893D01*
X86070285Y-88453262D01*
X85703262Y-88820285D01*
X85414893Y-89251859D01*
X85216261Y-89731399D01*
X85115000Y-90240475D01*
X84885000Y-90240475D01*
X84885000Y-89366578D01*
X88595049Y-85656530D01*
X88628817Y-85628817D01*
X88656534Y-85595044D01*
X89738518Y-84513060D01*
X89848816Y-84535000D01*
X90151184Y-84535000D01*
X90261482Y-84513060D01*
X91393471Y-85645050D01*
X91421184Y-85678818D01*
X91454952Y-85706531D01*
X91454954Y-85706533D01*
X91495015Y-85739410D01*
X91555942Y-85789412D01*
X91709688Y-85871590D01*
X91876511Y-85922196D01*
X92006524Y-85935001D01*
X92006534Y-85935001D01*
X92050000Y-85939282D01*
X92093466Y-85935001D01*
X105906530Y-85935001D01*
X105949999Y-85939282D01*
X105993468Y-85935001D01*
X105993476Y-85935001D01*
X106123489Y-85922196D01*
X106290312Y-85871590D01*
X106444058Y-85789412D01*
X106578816Y-85678818D01*
X106606533Y-85645045D01*
X107738518Y-84513060D01*
X107848816Y-84535000D01*
X108151184Y-84535000D01*
X108447743Y-84476011D01*
X108727095Y-84360299D01*
X108978505Y-84192312D01*
X109192312Y-83978505D01*
X109250000Y-83892169D01*
X109307688Y-83978505D01*
X109521495Y-84192312D01*
X109772905Y-84360299D01*
X110052257Y-84476011D01*
X110348816Y-84535000D01*
X110651184Y-84535000D01*
X110947743Y-84476011D01*
X111227095Y-84360299D01*
X111478505Y-84192312D01*
X111606737Y-84064080D01*
X112115525Y-84064080D01*
X112199208Y-84318261D01*
X112471775Y-84449158D01*
X112764642Y-84524365D01*
X113066553Y-84540991D01*
X113365907Y-84498397D01*
X113651199Y-84398222D01*
X113800792Y-84318261D01*
X113884475Y-84064080D01*
X113000000Y-83179605D01*
X112115525Y-84064080D01*
X111606737Y-84064080D01*
X111692312Y-83978505D01*
X111787738Y-83835690D01*
X111935920Y-83884475D01*
X112820395Y-83000000D01*
X113179605Y-83000000D01*
X114064080Y-83884475D01*
X114318261Y-83800792D01*
X114449158Y-83528225D01*
X114524365Y-83235358D01*
X114540991Y-82933447D01*
X114498397Y-82634093D01*
X114398222Y-82348801D01*
X114318261Y-82199208D01*
X114064080Y-82115525D01*
X113179605Y-83000000D01*
X112820395Y-83000000D01*
X111935920Y-82115525D01*
X111787738Y-82164310D01*
X111692312Y-82021495D01*
X111606737Y-81935920D01*
X112115525Y-81935920D01*
X113000000Y-82820395D01*
X113884475Y-81935920D01*
X113800792Y-81681739D01*
X113528225Y-81550842D01*
X113235358Y-81475635D01*
X112933447Y-81459009D01*
X112634093Y-81501603D01*
X112348801Y-81601778D01*
X112199208Y-81681739D01*
X112115525Y-81935920D01*
X111606737Y-81935920D01*
X111478505Y-81807688D01*
X111227095Y-81639701D01*
X110947743Y-81523989D01*
X110651184Y-81465000D01*
X110348816Y-81465000D01*
X110052257Y-81523989D01*
X109772905Y-81639701D01*
X109521495Y-81807688D01*
X109307688Y-82021495D01*
X109250000Y-82107831D01*
X109192312Y-82021495D01*
X108978505Y-81807688D01*
X108727095Y-81639701D01*
X108447743Y-81523989D01*
X108151184Y-81465000D01*
X107848816Y-81465000D01*
X107552257Y-81523989D01*
X107272905Y-81639701D01*
X107021495Y-81807688D01*
X106807688Y-82021495D01*
X106639701Y-82272905D01*
X106523989Y-82552257D01*
X106465000Y-82848816D01*
X106465000Y-83151184D01*
X106486940Y-83261482D01*
X105583421Y-84165001D01*
X95851249Y-84165001D01*
X95884475Y-84064080D01*
X95000000Y-83179605D01*
X94115525Y-84064080D01*
X94148751Y-84165001D01*
X93505816Y-84165001D01*
X93692312Y-83978505D01*
X93787738Y-83835690D01*
X93935920Y-83884475D01*
X94820395Y-83000000D01*
X95179605Y-83000000D01*
X96064080Y-83884475D01*
X96318261Y-83800792D01*
X96449158Y-83528225D01*
X96524365Y-83235358D01*
X96540991Y-82933447D01*
X96498397Y-82634093D01*
X96398222Y-82348801D01*
X96318261Y-82199208D01*
X96064080Y-82115525D01*
X95179605Y-83000000D01*
X94820395Y-83000000D01*
X93935920Y-82115525D01*
X93787738Y-82164310D01*
X93692312Y-82021495D01*
X93606737Y-81935920D01*
X94115525Y-81935920D01*
X95000000Y-82820395D01*
X95884475Y-81935920D01*
X95800792Y-81681739D01*
X95528225Y-81550842D01*
X95235358Y-81475635D01*
X94933447Y-81459009D01*
X94634093Y-81501603D01*
X94348801Y-81601778D01*
X94199208Y-81681739D01*
X94115525Y-81935920D01*
X93606737Y-81935920D01*
X93478505Y-81807688D01*
X93227095Y-81639701D01*
X92947743Y-81523989D01*
X92651184Y-81465000D01*
X92348816Y-81465000D01*
X92052257Y-81523989D01*
X91772905Y-81639701D01*
X91521495Y-81807688D01*
X91307688Y-82021495D01*
X91250000Y-82107831D01*
X91192312Y-82021495D01*
X90978505Y-81807688D01*
X90727095Y-81639701D01*
X90447743Y-81523989D01*
X90151184Y-81465000D01*
X89848816Y-81465000D01*
X89552257Y-81523989D01*
X89272905Y-81639701D01*
X89021495Y-81807688D01*
X88807688Y-82021495D01*
X88639701Y-82272905D01*
X88523989Y-82552257D01*
X88465000Y-82848816D01*
X88465000Y-83151184D01*
X88486940Y-83261482D01*
X87633422Y-84115000D01*
X77867711Y-84115000D01*
X77884475Y-84064080D01*
X77000000Y-83179605D01*
X76115525Y-84064080D01*
X76132289Y-84115000D01*
X75555817Y-84115000D01*
X75692312Y-83978505D01*
X75787738Y-83835690D01*
X75935920Y-83884475D01*
X76820395Y-83000000D01*
X77179605Y-83000000D01*
X78064080Y-83884475D01*
X78318261Y-83800792D01*
X78449158Y-83528225D01*
X78524365Y-83235358D01*
X78540991Y-82933447D01*
X78498397Y-82634093D01*
X78398222Y-82348801D01*
X78318261Y-82199208D01*
X78064080Y-82115525D01*
X77179605Y-83000000D01*
X76820395Y-83000000D01*
X75935920Y-82115525D01*
X75787738Y-82164310D01*
X75692312Y-82021495D01*
X75606737Y-81935920D01*
X76115525Y-81935920D01*
X77000000Y-82820395D01*
X77884475Y-81935920D01*
X77800792Y-81681739D01*
X77528225Y-81550842D01*
X77235358Y-81475635D01*
X76933447Y-81459009D01*
X76634093Y-81501603D01*
X76348801Y-81601778D01*
X76199208Y-81681739D01*
X76115525Y-81935920D01*
X75606737Y-81935920D01*
X75478505Y-81807688D01*
X75227095Y-81639701D01*
X74947743Y-81523989D01*
X74651184Y-81465000D01*
X74348816Y-81465000D01*
X74052257Y-81523989D01*
X73772905Y-81639701D01*
X73521495Y-81807688D01*
X73307688Y-82021495D01*
X73250000Y-82107831D01*
X73192312Y-82021495D01*
X72978505Y-81807688D01*
X72727095Y-81639701D01*
X72447743Y-81523989D01*
X72151184Y-81465000D01*
X71848816Y-81465000D01*
X71552257Y-81523989D01*
X71272905Y-81639701D01*
X71021495Y-81807688D01*
X70807688Y-82021495D01*
X70639701Y-82272905D01*
X70523989Y-82552257D01*
X70465000Y-82848816D01*
X70465000Y-83151184D01*
X70523989Y-83447743D01*
X70639701Y-83727095D01*
X70807688Y-83978505D01*
X71021495Y-84192312D01*
X71272905Y-84360299D01*
X71552257Y-84476011D01*
X71848816Y-84535000D01*
X72151184Y-84535000D01*
X72261482Y-84513060D01*
X73343468Y-85595047D01*
X73371183Y-85628817D01*
X73404951Y-85656530D01*
X73404953Y-85656532D01*
X73432109Y-85678818D01*
X73505941Y-85739411D01*
X73659687Y-85821589D01*
X73826510Y-85872195D01*
X73956523Y-85885000D01*
X73956533Y-85885000D01*
X73999999Y-85889281D01*
X74043465Y-85885000D01*
X85863421Y-85885000D01*
X83404951Y-88343470D01*
X83371184Y-88371183D01*
X83343471Y-88404951D01*
X83343468Y-88404954D01*
X83260590Y-88505941D01*
X83178412Y-88659687D01*
X83127805Y-88826510D01*
X83110719Y-89000000D01*
X83115001Y-89043479D01*
X83115000Y-101255793D01*
X82976156Y-101047998D01*
X82781571Y-100853413D01*
X82552763Y-100700528D01*
X82298526Y-100595219D01*
X82028628Y-100541533D01*
X81753444Y-100541533D01*
X81483546Y-100595219D01*
X81229309Y-100700528D01*
X81000501Y-100853413D01*
X80805916Y-101047998D01*
X80653031Y-101276806D01*
X80547722Y-101531043D01*
X80494036Y-101800941D01*
X80494036Y-102076125D01*
X80547722Y-102346023D01*
X80653031Y-102600260D01*
X80805916Y-102829068D01*
X81000501Y-103023653D01*
X81229309Y-103176538D01*
X81483546Y-103281847D01*
X81753444Y-103335533D01*
X82028628Y-103335533D01*
X82298526Y-103281847D01*
X82552763Y-103176538D01*
X82781571Y-103023653D01*
X82976156Y-102829068D01*
X83115000Y-102621273D01*
X83115000Y-107378727D01*
X82976156Y-107170932D01*
X82781571Y-106976347D01*
X82552763Y-106823462D01*
X82298526Y-106718153D01*
X82028628Y-106664467D01*
X81753444Y-106664467D01*
X81483546Y-106718153D01*
X81229309Y-106823462D01*
X81000501Y-106976347D01*
X80805916Y-107170932D01*
X80653031Y-107399740D01*
X80547722Y-107653977D01*
X80494036Y-107923875D01*
X80494036Y-108199059D01*
X80547722Y-108468957D01*
X80653031Y-108723194D01*
X80805916Y-108952002D01*
X81000501Y-109146587D01*
X81229309Y-109299472D01*
X81483546Y-109404781D01*
X81753444Y-109458467D01*
X82028628Y-109458467D01*
X82298526Y-109404781D01*
X82552763Y-109299472D01*
X82781571Y-109146587D01*
X82976156Y-108952002D01*
X83115000Y-108744208D01*
X83115000Y-111461546D01*
X83082795Y-111509744D01*
X83004774Y-111698102D01*
X82993465Y-111754956D01*
X81904951Y-112843471D01*
X81871184Y-112871183D01*
X81843471Y-112904951D01*
X81843468Y-112904954D01*
X81760590Y-113005941D01*
X81678412Y-113159687D01*
X81627805Y-113326510D01*
X81610719Y-113500000D01*
X81615001Y-113543479D01*
X81615000Y-119956531D01*
X81610719Y-120000000D01*
X81615000Y-120043469D01*
X81615000Y-120043476D01*
X81627805Y-120173489D01*
X81678411Y-120340312D01*
X81760589Y-120494058D01*
X81871183Y-120628817D01*
X81904956Y-120656534D01*
X83561928Y-122313507D01*
X83561928Y-123300000D01*
X83574188Y-123424482D01*
X83610498Y-123544180D01*
X83648353Y-123615000D01*
X78543469Y-123615000D01*
X78500000Y-123610719D01*
X78456531Y-123615000D01*
X78456523Y-123615000D01*
X78326510Y-123627805D01*
X78159687Y-123678411D01*
X78023535Y-123751185D01*
X78005941Y-123760589D01*
X77904953Y-123843468D01*
X77904951Y-123843470D01*
X77871183Y-123871183D01*
X77843470Y-123904951D01*
X74383422Y-127365000D01*
X71929701Y-127365000D01*
X71925812Y-127325518D01*
X71889502Y-127205820D01*
X71830537Y-127095506D01*
X71751185Y-126998815D01*
X71654494Y-126919463D01*
X71544180Y-126860498D01*
X71424482Y-126824188D01*
X71300000Y-126811928D01*
X69700000Y-126811928D01*
X69575518Y-126824188D01*
X69455820Y-126860498D01*
X69345506Y-126919463D01*
X69248815Y-126998815D01*
X69169463Y-127095506D01*
X69110498Y-127205820D01*
X69074188Y-127325518D01*
X69061928Y-127450000D01*
X69061928Y-129050000D01*
X69074188Y-129174482D01*
X69110498Y-129294180D01*
X69169463Y-129404494D01*
X69248815Y-129501185D01*
X69345506Y-129580537D01*
X69455820Y-129639502D01*
X69575518Y-129675812D01*
X69700000Y-129688072D01*
X71300000Y-129688072D01*
X71424482Y-129675812D01*
X71544180Y-129639502D01*
X71654494Y-129580537D01*
X71751185Y-129501185D01*
X71830537Y-129404494D01*
X71889502Y-129294180D01*
X71925812Y-129174482D01*
X71929701Y-129135000D01*
X74706531Y-129135000D01*
X74750000Y-129139281D01*
X74793469Y-129135000D01*
X74793477Y-129135000D01*
X74923490Y-129122195D01*
X75090313Y-129071589D01*
X75244059Y-128989411D01*
X75378817Y-128878817D01*
X75406534Y-128845044D01*
X75601578Y-128650000D01*
X76011928Y-128650000D01*
X76011928Y-130350000D01*
X76024188Y-130474482D01*
X76060498Y-130594180D01*
X76119463Y-130704494D01*
X76198815Y-130801185D01*
X76295506Y-130880537D01*
X76405820Y-130939502D01*
X76486466Y-130963966D01*
X76402412Y-131039731D01*
X76228359Y-131273080D01*
X76103175Y-131535901D01*
X76058524Y-131683110D01*
X76179845Y-131913000D01*
X77373000Y-131913000D01*
X77373000Y-131893000D01*
X77627000Y-131893000D01*
X77627000Y-131913000D01*
X78820155Y-131913000D01*
X78941476Y-131683110D01*
X78896825Y-131535901D01*
X78771641Y-131273080D01*
X78597588Y-131039731D01*
X78513534Y-130963966D01*
X78594180Y-130939502D01*
X78704494Y-130880537D01*
X78801185Y-130801185D01*
X78880537Y-130704494D01*
X78939502Y-130594180D01*
X78975812Y-130474482D01*
X78988072Y-130350000D01*
X78988072Y-128650000D01*
X78975812Y-128525518D01*
X78939502Y-128405820D01*
X78880537Y-128295506D01*
X78801185Y-128198815D01*
X78704494Y-128119463D01*
X78594180Y-128060498D01*
X78474482Y-128024188D01*
X78350000Y-128011928D01*
X76650000Y-128011928D01*
X76525518Y-128024188D01*
X76405820Y-128060498D01*
X76295506Y-128119463D01*
X76198815Y-128198815D01*
X76119463Y-128295506D01*
X76060498Y-128405820D01*
X76024188Y-128525518D01*
X76011928Y-128650000D01*
X75601578Y-128650000D01*
X78866579Y-125385000D01*
X79947034Y-125385000D01*
X79929443Y-125394403D01*
X79910197Y-125410197D01*
X79894403Y-125429443D01*
X79882667Y-125451399D01*
X79875440Y-125475224D01*
X79873000Y-125500000D01*
X79873000Y-139840000D01*
X67532279Y-139840000D01*
X67240340Y-139811375D01*
X66990571Y-139735965D01*
X66760206Y-139613477D01*
X66558021Y-139448579D01*
X66391712Y-139247546D01*
X66267622Y-139018046D01*
X66190469Y-138768805D01*
X66160000Y-138478911D01*
X66160000Y-137856891D01*
X69018519Y-137856891D01*
X69115843Y-138131252D01*
X69264822Y-138381355D01*
X69459731Y-138597588D01*
X69693080Y-138771641D01*
X69955901Y-138896825D01*
X70103110Y-138941476D01*
X70333000Y-138820155D01*
X70333000Y-137627000D01*
X69139186Y-137627000D01*
X69018519Y-137856891D01*
X66160000Y-137856891D01*
X66160000Y-137143109D01*
X69018519Y-137143109D01*
X69139186Y-137373000D01*
X70333000Y-137373000D01*
X70333000Y-136179845D01*
X70587000Y-136179845D01*
X70587000Y-137373000D01*
X70607000Y-137373000D01*
X70607000Y-137627000D01*
X70587000Y-137627000D01*
X70587000Y-138820155D01*
X70816890Y-138941476D01*
X70964099Y-138896825D01*
X71226920Y-138771641D01*
X71460269Y-138597588D01*
X71536034Y-138513534D01*
X71560498Y-138594180D01*
X71619463Y-138704494D01*
X71698815Y-138801185D01*
X71795506Y-138880537D01*
X71905820Y-138939502D01*
X72025518Y-138975812D01*
X72150000Y-138988072D01*
X73850000Y-138988072D01*
X73974482Y-138975812D01*
X74094180Y-138939502D01*
X74204494Y-138880537D01*
X74301185Y-138801185D01*
X74380537Y-138704494D01*
X74439502Y-138594180D01*
X74475812Y-138474482D01*
X74488072Y-138350000D01*
X74488072Y-136650000D01*
X76011928Y-136650000D01*
X76011928Y-138350000D01*
X76024188Y-138474482D01*
X76060498Y-138594180D01*
X76119463Y-138704494D01*
X76198815Y-138801185D01*
X76295506Y-138880537D01*
X76405820Y-138939502D01*
X76525518Y-138975812D01*
X76650000Y-138988072D01*
X78350000Y-138988072D01*
X78474482Y-138975812D01*
X78594180Y-138939502D01*
X78704494Y-138880537D01*
X78801185Y-138801185D01*
X78880537Y-138704494D01*
X78939502Y-138594180D01*
X78975812Y-138474482D01*
X78988072Y-138350000D01*
X78988072Y-136650000D01*
X78975812Y-136525518D01*
X78939502Y-136405820D01*
X78880537Y-136295506D01*
X78801185Y-136198815D01*
X78704494Y-136119463D01*
X78594180Y-136060498D01*
X78474482Y-136024188D01*
X78350000Y-136011928D01*
X76650000Y-136011928D01*
X76525518Y-136024188D01*
X76405820Y-136060498D01*
X76295506Y-136119463D01*
X76198815Y-136198815D01*
X76119463Y-136295506D01*
X76060498Y-136405820D01*
X76024188Y-136525518D01*
X76011928Y-136650000D01*
X74488072Y-136650000D01*
X74475812Y-136525518D01*
X74439502Y-136405820D01*
X74380537Y-136295506D01*
X74301185Y-136198815D01*
X74204494Y-136119463D01*
X74094180Y-136060498D01*
X73974482Y-136024188D01*
X73850000Y-136011928D01*
X72150000Y-136011928D01*
X72025518Y-136024188D01*
X71905820Y-136060498D01*
X71795506Y-136119463D01*
X71698815Y-136198815D01*
X71619463Y-136295506D01*
X71560498Y-136405820D01*
X71536034Y-136486466D01*
X71460269Y-136402412D01*
X71226920Y-136228359D01*
X70964099Y-136103175D01*
X70816890Y-136058524D01*
X70587000Y-136179845D01*
X70333000Y-136179845D01*
X70103110Y-136058524D01*
X69955901Y-136103175D01*
X69693080Y-136228359D01*
X69459731Y-136402412D01*
X69264822Y-136618645D01*
X69115843Y-136868748D01*
X69018519Y-137143109D01*
X66160000Y-137143109D01*
X66160000Y-134242702D01*
X69686903Y-134242702D01*
X69758486Y-134486671D01*
X70013996Y-134607571D01*
X70288184Y-134676300D01*
X70570512Y-134690217D01*
X70850130Y-134648787D01*
X71116292Y-134553603D01*
X71241514Y-134486671D01*
X71313097Y-134242702D01*
X70500000Y-133429605D01*
X69686903Y-134242702D01*
X66160000Y-134242702D01*
X66160000Y-133320512D01*
X69059783Y-133320512D01*
X69101213Y-133600130D01*
X69196397Y-133866292D01*
X69263329Y-133991514D01*
X69507298Y-134063097D01*
X70320395Y-133250000D01*
X70679605Y-133250000D01*
X71492702Y-134063097D01*
X71736671Y-133991514D01*
X71857571Y-133736004D01*
X71926300Y-133461816D01*
X71940217Y-133179488D01*
X71898787Y-132899870D01*
X71803603Y-132633708D01*
X71736671Y-132508486D01*
X71492702Y-132436903D01*
X70679605Y-133250000D01*
X70320395Y-133250000D01*
X69507298Y-132436903D01*
X69263329Y-132508486D01*
X69142429Y-132763996D01*
X69073700Y-133038184D01*
X69059783Y-133320512D01*
X66160000Y-133320512D01*
X66160000Y-132257298D01*
X69686903Y-132257298D01*
X70500000Y-133070395D01*
X71173505Y-132396890D01*
X76058524Y-132396890D01*
X76103175Y-132544099D01*
X76228359Y-132806920D01*
X76402412Y-133040269D01*
X76618645Y-133235178D01*
X76868748Y-133384157D01*
X77143109Y-133481481D01*
X77373000Y-133360814D01*
X77373000Y-132167000D01*
X77627000Y-132167000D01*
X77627000Y-133360814D01*
X77856891Y-133481481D01*
X78131252Y-133384157D01*
X78381355Y-133235178D01*
X78597588Y-133040269D01*
X78771641Y-132806920D01*
X78896825Y-132544099D01*
X78941476Y-132396890D01*
X78820155Y-132167000D01*
X77627000Y-132167000D01*
X77373000Y-132167000D01*
X76179845Y-132167000D01*
X76058524Y-132396890D01*
X71173505Y-132396890D01*
X71313097Y-132257298D01*
X71241514Y-132013329D01*
X70986004Y-131892429D01*
X70711816Y-131823700D01*
X70429488Y-131809783D01*
X70149870Y-131851213D01*
X69883708Y-131946397D01*
X69758486Y-132013329D01*
X69686903Y-132257298D01*
X66160000Y-132257298D01*
X66160000Y-112253444D01*
X70041533Y-112253444D01*
X70041533Y-112528628D01*
X70095219Y-112798526D01*
X70200528Y-113052763D01*
X70353413Y-113281571D01*
X70547998Y-113476156D01*
X70776806Y-113629041D01*
X71031043Y-113734350D01*
X71300941Y-113788036D01*
X71576125Y-113788036D01*
X71846023Y-113734350D01*
X72100260Y-113629041D01*
X72329068Y-113476156D01*
X72523653Y-113281571D01*
X72676538Y-113052763D01*
X72781847Y-112798526D01*
X72835533Y-112528628D01*
X72835533Y-112253444D01*
X76164467Y-112253444D01*
X76164467Y-112528628D01*
X76218153Y-112798526D01*
X76323462Y-113052763D01*
X76476347Y-113281571D01*
X76670932Y-113476156D01*
X76899740Y-113629041D01*
X77153977Y-113734350D01*
X77423875Y-113788036D01*
X77699059Y-113788036D01*
X77968957Y-113734350D01*
X78223194Y-113629041D01*
X78452002Y-113476156D01*
X78646587Y-113281571D01*
X78799472Y-113052763D01*
X78904781Y-112798526D01*
X78958467Y-112528628D01*
X78958467Y-112253444D01*
X78904781Y-111983546D01*
X78799472Y-111729309D01*
X78646587Y-111500501D01*
X78452002Y-111305916D01*
X78223194Y-111153031D01*
X77968957Y-111047722D01*
X77699059Y-110994036D01*
X77423875Y-110994036D01*
X77153977Y-111047722D01*
X76899740Y-111153031D01*
X76670932Y-111305916D01*
X76476347Y-111500501D01*
X76323462Y-111729309D01*
X76218153Y-111983546D01*
X76164467Y-112253444D01*
X72835533Y-112253444D01*
X72781847Y-111983546D01*
X72676538Y-111729309D01*
X72523653Y-111500501D01*
X72329068Y-111305916D01*
X72100260Y-111153031D01*
X71846023Y-111047722D01*
X71576125Y-110994036D01*
X71300941Y-110994036D01*
X71031043Y-111047722D01*
X70776806Y-111153031D01*
X70547998Y-111305916D01*
X70353413Y-111500501D01*
X70200528Y-111729309D01*
X70095219Y-111983546D01*
X70041533Y-112253444D01*
X66160000Y-112253444D01*
X66160000Y-109088158D01*
X66218429Y-109146587D01*
X66447237Y-109299472D01*
X66701474Y-109404781D01*
X66971372Y-109458467D01*
X67246556Y-109458467D01*
X67516454Y-109404781D01*
X67770691Y-109299472D01*
X67999499Y-109146587D01*
X68194084Y-108952002D01*
X68346969Y-108723194D01*
X68452278Y-108468957D01*
X68505964Y-108199059D01*
X68505964Y-107923875D01*
X68452278Y-107653977D01*
X68393638Y-107512408D01*
X73103000Y-107512408D01*
X73103000Y-107787592D01*
X73156686Y-108057490D01*
X73261995Y-108311727D01*
X73414880Y-108540535D01*
X73609465Y-108735120D01*
X73838273Y-108888005D01*
X74092510Y-108993314D01*
X74362408Y-109047000D01*
X74637592Y-109047000D01*
X74907490Y-108993314D01*
X75161727Y-108888005D01*
X75390535Y-108735120D01*
X75585120Y-108540535D01*
X75738005Y-108311727D01*
X75843314Y-108057490D01*
X75897000Y-107787592D01*
X75897000Y-107512408D01*
X75843314Y-107242510D01*
X75738005Y-106988273D01*
X75585120Y-106759465D01*
X75390535Y-106564880D01*
X75161727Y-106411995D01*
X74907490Y-106306686D01*
X74637592Y-106253000D01*
X74362408Y-106253000D01*
X74092510Y-106306686D01*
X73838273Y-106411995D01*
X73609465Y-106564880D01*
X73414880Y-106759465D01*
X73261995Y-106988273D01*
X73156686Y-107242510D01*
X73103000Y-107512408D01*
X68393638Y-107512408D01*
X68346969Y-107399740D01*
X68194084Y-107170932D01*
X67999499Y-106976347D01*
X67770691Y-106823462D01*
X67516454Y-106718153D01*
X67246556Y-106664467D01*
X66971372Y-106664467D01*
X66701474Y-106718153D01*
X66447237Y-106823462D01*
X66218429Y-106976347D01*
X66160000Y-107034776D01*
X66160000Y-102965224D01*
X66218429Y-103023653D01*
X66447237Y-103176538D01*
X66701474Y-103281847D01*
X66971372Y-103335533D01*
X67246556Y-103335533D01*
X67516454Y-103281847D01*
X67770691Y-103176538D01*
X67999499Y-103023653D01*
X68194084Y-102829068D01*
X68346969Y-102600260D01*
X68452278Y-102346023D01*
X68505964Y-102076125D01*
X68505964Y-101800941D01*
X68452278Y-101531043D01*
X68346969Y-101276806D01*
X68194084Y-101047998D01*
X67999499Y-100853413D01*
X67770691Y-100700528D01*
X67516454Y-100595219D01*
X67246556Y-100541533D01*
X66971372Y-100541533D01*
X66701474Y-100595219D01*
X66447237Y-100700528D01*
X66218429Y-100853413D01*
X66160000Y-100911842D01*
X66160000Y-97471372D01*
X70041533Y-97471372D01*
X70041533Y-97746556D01*
X70095219Y-98016454D01*
X70200528Y-98270691D01*
X70353413Y-98499499D01*
X70547998Y-98694084D01*
X70776806Y-98846969D01*
X71031043Y-98952278D01*
X71300941Y-99005964D01*
X71576125Y-99005964D01*
X71846023Y-98952278D01*
X72100260Y-98846969D01*
X72329068Y-98694084D01*
X72523653Y-98499499D01*
X72676538Y-98270691D01*
X72781847Y-98016454D01*
X72835533Y-97746556D01*
X72835533Y-97471372D01*
X76164467Y-97471372D01*
X76164467Y-97746556D01*
X76218153Y-98016454D01*
X76323462Y-98270691D01*
X76476347Y-98499499D01*
X76670932Y-98694084D01*
X76899740Y-98846969D01*
X77153977Y-98952278D01*
X77423875Y-99005964D01*
X77699059Y-99005964D01*
X77968957Y-98952278D01*
X78223194Y-98846969D01*
X78452002Y-98694084D01*
X78646587Y-98499499D01*
X78799472Y-98270691D01*
X78904781Y-98016454D01*
X78958467Y-97746556D01*
X78958467Y-97471372D01*
X78904781Y-97201474D01*
X78799472Y-96947237D01*
X78646587Y-96718429D01*
X78452002Y-96523844D01*
X78223194Y-96370959D01*
X77968957Y-96265650D01*
X77699059Y-96211964D01*
X77423875Y-96211964D01*
X77153977Y-96265650D01*
X76899740Y-96370959D01*
X76670932Y-96523844D01*
X76476347Y-96718429D01*
X76323462Y-96947237D01*
X76218153Y-97201474D01*
X76164467Y-97471372D01*
X72835533Y-97471372D01*
X72781847Y-97201474D01*
X72676538Y-96947237D01*
X72523653Y-96718429D01*
X72329068Y-96523844D01*
X72100260Y-96370959D01*
X71846023Y-96265650D01*
X71576125Y-96211964D01*
X71300941Y-96211964D01*
X71031043Y-96265650D01*
X70776806Y-96370959D01*
X70547998Y-96523844D01*
X70353413Y-96718429D01*
X70200528Y-96947237D01*
X70095219Y-97201474D01*
X70041533Y-97471372D01*
X66160000Y-97471372D01*
X66160000Y-90240475D01*
X67115000Y-90240475D01*
X67115000Y-90759525D01*
X67216261Y-91268601D01*
X67414893Y-91748141D01*
X67703262Y-92179715D01*
X68070285Y-92546738D01*
X68501859Y-92835107D01*
X68981399Y-93033739D01*
X69490475Y-93135000D01*
X70009525Y-93135000D01*
X70518601Y-93033739D01*
X70998141Y-92835107D01*
X71429715Y-92546738D01*
X71796738Y-92179715D01*
X72085107Y-91748141D01*
X72283739Y-91268601D01*
X72385000Y-90759525D01*
X72385000Y-90240475D01*
X76615000Y-90240475D01*
X76615000Y-90759525D01*
X76716261Y-91268601D01*
X76914893Y-91748141D01*
X77203262Y-92179715D01*
X77570285Y-92546738D01*
X78001859Y-92835107D01*
X78481399Y-93033739D01*
X78990475Y-93135000D01*
X79509525Y-93135000D01*
X80018601Y-93033739D01*
X80498141Y-92835107D01*
X80929715Y-92546738D01*
X81296738Y-92179715D01*
X81585107Y-91748141D01*
X81783739Y-91268601D01*
X81885000Y-90759525D01*
X81885000Y-90240475D01*
X81783739Y-89731399D01*
X81585107Y-89251859D01*
X81296738Y-88820285D01*
X80929715Y-88453262D01*
X80498141Y-88164893D01*
X80018601Y-87966261D01*
X79509525Y-87865000D01*
X78990475Y-87865000D01*
X78481399Y-87966261D01*
X78001859Y-88164893D01*
X77570285Y-88453262D01*
X77203262Y-88820285D01*
X76914893Y-89251859D01*
X76716261Y-89731399D01*
X76615000Y-90240475D01*
X72385000Y-90240475D01*
X72283739Y-89731399D01*
X72085107Y-89251859D01*
X71796738Y-88820285D01*
X71429715Y-88453262D01*
X70998141Y-88164893D01*
X70518601Y-87966261D01*
X70009525Y-87865000D01*
X69490475Y-87865000D01*
X68981399Y-87966261D01*
X68501859Y-88164893D01*
X68070285Y-88453262D01*
X67703262Y-88820285D01*
X67414893Y-89251859D01*
X67216261Y-89731399D01*
X67115000Y-90240475D01*
X66160000Y-90240475D01*
X66160000Y-82532279D01*
X66188625Y-82240341D01*
X66264035Y-81990571D01*
X66386522Y-81760208D01*
X66551422Y-81558020D01*
X66752450Y-81391714D01*
X66981954Y-81267622D01*
X67231195Y-81190469D01*
X67521088Y-81160000D01*
X117467721Y-81160000D01*
X117759659Y-81188625D01*
G37*
X117759659Y-81188625D02*
X118009429Y-81264035D01*
X118239792Y-81386522D01*
X118441980Y-81551422D01*
X118608286Y-81752450D01*
X118732378Y-81981954D01*
X118809531Y-82231195D01*
X118840000Y-82521088D01*
X118840000Y-100911842D01*
X118781571Y-100853413D01*
X118552763Y-100700528D01*
X118298526Y-100595219D01*
X118028628Y-100541533D01*
X117753444Y-100541533D01*
X117483546Y-100595219D01*
X117229309Y-100700528D01*
X117000501Y-100853413D01*
X116805916Y-101047998D01*
X116653031Y-101276806D01*
X116547722Y-101531043D01*
X116494036Y-101800941D01*
X116494036Y-102076125D01*
X116547722Y-102346023D01*
X116653031Y-102600260D01*
X116805916Y-102829068D01*
X117000501Y-103023653D01*
X117229309Y-103176538D01*
X117483546Y-103281847D01*
X117753444Y-103335533D01*
X118028628Y-103335533D01*
X118298526Y-103281847D01*
X118552763Y-103176538D01*
X118781571Y-103023653D01*
X118840000Y-102965224D01*
X118840000Y-107034776D01*
X118781571Y-106976347D01*
X118552763Y-106823462D01*
X118298526Y-106718153D01*
X118028628Y-106664467D01*
X117753444Y-106664467D01*
X117483546Y-106718153D01*
X117229309Y-106823462D01*
X117000501Y-106976347D01*
X116805916Y-107170932D01*
X116653031Y-107399740D01*
X116547722Y-107653977D01*
X116494036Y-107923875D01*
X116494036Y-108199059D01*
X116547722Y-108468957D01*
X116653031Y-108723194D01*
X116805916Y-108952002D01*
X117000501Y-109146587D01*
X117229309Y-109299472D01*
X117483546Y-109404781D01*
X117753444Y-109458467D01*
X118028628Y-109458467D01*
X118298526Y-109404781D01*
X118552763Y-109299472D01*
X118781571Y-109146587D01*
X118840000Y-109088158D01*
X118840001Y-125373000D01*
X110124578Y-125373000D01*
X108132403Y-123380825D01*
X110990000Y-123380825D01*
X110990000Y-123619175D01*
X111036499Y-123852944D01*
X111127712Y-124073150D01*
X111260131Y-124271330D01*
X111428670Y-124439869D01*
X111626850Y-124572288D01*
X111847056Y-124663501D01*
X112080825Y-124710000D01*
X112319175Y-124710000D01*
X112552944Y-124663501D01*
X112773150Y-124572288D01*
X112971330Y-124439869D01*
X113139869Y-124271330D01*
X113272288Y-124073150D01*
X113363501Y-123852944D01*
X113410000Y-123619175D01*
X113410000Y-123380825D01*
X113376519Y-123212500D01*
X114786928Y-123212500D01*
X114786928Y-123787500D01*
X114804713Y-123968070D01*
X114857383Y-124141701D01*
X114942915Y-124301720D01*
X115058022Y-124441978D01*
X115198280Y-124557085D01*
X115358299Y-124642617D01*
X115531930Y-124695287D01*
X115712500Y-124713072D01*
X116287500Y-124713072D01*
X116468070Y-124695287D01*
X116641701Y-124642617D01*
X116801720Y-124557085D01*
X116941978Y-124441978D01*
X117057085Y-124301720D01*
X117142617Y-124141701D01*
X117195287Y-123968070D01*
X117213072Y-123787500D01*
X117213072Y-123212500D01*
X117195287Y-123031930D01*
X117142617Y-122858299D01*
X117057085Y-122698280D01*
X116941978Y-122558022D01*
X116801720Y-122442915D01*
X116641701Y-122357383D01*
X116468070Y-122304713D01*
X116287500Y-122286928D01*
X115712500Y-122286928D01*
X115531930Y-122304713D01*
X115358299Y-122357383D01*
X115198280Y-122442915D01*
X115058022Y-122558022D01*
X114942915Y-122698280D01*
X114857383Y-122858299D01*
X114804713Y-123031930D01*
X114786928Y-123212500D01*
X113376519Y-123212500D01*
X113363501Y-123147056D01*
X113272288Y-122926850D01*
X113139869Y-122728670D01*
X112971330Y-122560131D01*
X112773150Y-122427712D01*
X112552944Y-122336499D01*
X112319175Y-122290000D01*
X112080825Y-122290000D01*
X111847056Y-122336499D01*
X111626850Y-122427712D01*
X111428670Y-122560131D01*
X111260131Y-122728670D01*
X111127712Y-122926850D01*
X111036499Y-123147056D01*
X110990000Y-123380825D01*
X108132403Y-123380825D01*
X104385000Y-119633422D01*
X104385000Y-114350000D01*
X114961928Y-114350000D01*
X114961928Y-116150000D01*
X114974188Y-116274482D01*
X115010498Y-116394180D01*
X115069463Y-116504494D01*
X115148815Y-116601185D01*
X115245506Y-116680537D01*
X115355820Y-116739502D01*
X115374127Y-116745056D01*
X115307688Y-116811495D01*
X115139701Y-117062905D01*
X115023989Y-117342257D01*
X114965000Y-117638816D01*
X114965000Y-117941184D01*
X115023989Y-118237743D01*
X115139701Y-118517095D01*
X115307688Y-118768505D01*
X115521495Y-118982312D01*
X115772905Y-119150299D01*
X116052257Y-119266011D01*
X116348816Y-119325000D01*
X116651184Y-119325000D01*
X116947743Y-119266011D01*
X117227095Y-119150299D01*
X117478505Y-118982312D01*
X117692312Y-118768505D01*
X117860299Y-118517095D01*
X117976011Y-118237743D01*
X118035000Y-117941184D01*
X118035000Y-117638816D01*
X117976011Y-117342257D01*
X117860299Y-117062905D01*
X117692312Y-116811495D01*
X117625873Y-116745056D01*
X117644180Y-116739502D01*
X117754494Y-116680537D01*
X117851185Y-116601185D01*
X117930537Y-116504494D01*
X117989502Y-116394180D01*
X118025812Y-116274482D01*
X118038072Y-116150000D01*
X118038072Y-114350000D01*
X118025812Y-114225518D01*
X117989502Y-114105820D01*
X117930537Y-113995506D01*
X117851185Y-113898815D01*
X117754494Y-113819463D01*
X117644180Y-113760498D01*
X117524482Y-113724188D01*
X117400000Y-113711928D01*
X115600000Y-113711928D01*
X115475518Y-113724188D01*
X115355820Y-113760498D01*
X115245506Y-113819463D01*
X115148815Y-113898815D01*
X115069463Y-113995506D01*
X115010498Y-114105820D01*
X114974188Y-114225518D01*
X114961928Y-114350000D01*
X104385000Y-114350000D01*
X104385000Y-113793465D01*
X104389281Y-113749999D01*
X104385000Y-113706533D01*
X104385000Y-113706523D01*
X104372195Y-113576510D01*
X104321589Y-113409687D01*
X104239411Y-113255941D01*
X104208573Y-113218365D01*
X104156532Y-113154953D01*
X104156530Y-113154951D01*
X104128817Y-113121183D01*
X104095049Y-113093470D01*
X103255023Y-112253444D01*
X106041533Y-112253444D01*
X106041533Y-112528628D01*
X106095219Y-112798526D01*
X106200528Y-113052763D01*
X106353413Y-113281571D01*
X106547998Y-113476156D01*
X106776806Y-113629041D01*
X107031043Y-113734350D01*
X107300941Y-113788036D01*
X107576125Y-113788036D01*
X107846023Y-113734350D01*
X108100260Y-113629041D01*
X108329068Y-113476156D01*
X108523653Y-113281571D01*
X108676538Y-113052763D01*
X108781847Y-112798526D01*
X108835533Y-112528628D01*
X108835533Y-112253444D01*
X112164467Y-112253444D01*
X112164467Y-112528628D01*
X112218153Y-112798526D01*
X112323462Y-113052763D01*
X112476347Y-113281571D01*
X112670932Y-113476156D01*
X112899740Y-113629041D01*
X113153977Y-113734350D01*
X113423875Y-113788036D01*
X113699059Y-113788036D01*
X113968957Y-113734350D01*
X114223194Y-113629041D01*
X114452002Y-113476156D01*
X114646587Y-113281571D01*
X114799472Y-113052763D01*
X114904781Y-112798526D01*
X114958467Y-112528628D01*
X114958467Y-112253444D01*
X114904781Y-111983546D01*
X114799472Y-111729309D01*
X114646587Y-111500501D01*
X114452002Y-111305916D01*
X114223194Y-111153031D01*
X113968957Y-111047722D01*
X113699059Y-110994036D01*
X113423875Y-110994036D01*
X113153977Y-111047722D01*
X112899740Y-111153031D01*
X112670932Y-111305916D01*
X112476347Y-111500501D01*
X112323462Y-111729309D01*
X112218153Y-111983546D01*
X112164467Y-112253444D01*
X108835533Y-112253444D01*
X108781847Y-111983546D01*
X108676538Y-111729309D01*
X108523653Y-111500501D01*
X108329068Y-111305916D01*
X108100260Y-111153031D01*
X107846023Y-111047722D01*
X107576125Y-110994036D01*
X107300941Y-110994036D01*
X107031043Y-111047722D01*
X106776806Y-111153031D01*
X106547998Y-111305916D01*
X106353413Y-111500501D01*
X106200528Y-111729309D01*
X106095219Y-111983546D01*
X106041533Y-112253444D01*
X103255023Y-112253444D01*
X102335011Y-111333433D01*
X102335011Y-109224485D01*
X102447237Y-109299472D01*
X102701474Y-109404781D01*
X102971372Y-109458467D01*
X103246556Y-109458467D01*
X103516454Y-109404781D01*
X103770691Y-109299472D01*
X103999499Y-109146587D01*
X104194084Y-108952002D01*
X104346969Y-108723194D01*
X104452278Y-108468957D01*
X104505964Y-108199059D01*
X104505964Y-107923875D01*
X104452278Y-107653977D01*
X104393638Y-107512408D01*
X109103000Y-107512408D01*
X109103000Y-107787592D01*
X109156686Y-108057490D01*
X109261995Y-108311727D01*
X109414880Y-108540535D01*
X109609465Y-108735120D01*
X109838273Y-108888005D01*
X110092510Y-108993314D01*
X110362408Y-109047000D01*
X110637592Y-109047000D01*
X110907490Y-108993314D01*
X111161727Y-108888005D01*
X111390535Y-108735120D01*
X111585120Y-108540535D01*
X111738005Y-108311727D01*
X111843314Y-108057490D01*
X111897000Y-107787592D01*
X111897000Y-107512408D01*
X111843314Y-107242510D01*
X111738005Y-106988273D01*
X111585120Y-106759465D01*
X111390535Y-106564880D01*
X111161727Y-106411995D01*
X110907490Y-106306686D01*
X110637592Y-106253000D01*
X110362408Y-106253000D01*
X110092510Y-106306686D01*
X109838273Y-106411995D01*
X109609465Y-106564880D01*
X109414880Y-106759465D01*
X109261995Y-106988273D01*
X109156686Y-107242510D01*
X109103000Y-107512408D01*
X104393638Y-107512408D01*
X104346969Y-107399740D01*
X104194084Y-107170932D01*
X103999499Y-106976347D01*
X103770691Y-106823462D01*
X103516454Y-106718153D01*
X103246556Y-106664467D01*
X102971372Y-106664467D01*
X102701474Y-106718153D01*
X102447237Y-106823462D01*
X102335011Y-106898449D01*
X102335011Y-104493477D01*
X102339292Y-104450010D01*
X102335011Y-104406544D01*
X102335011Y-104406534D01*
X102322206Y-104276521D01*
X102271600Y-104109698D01*
X102189422Y-103955952D01*
X102078828Y-103821194D01*
X102045060Y-103793481D01*
X100052520Y-101800941D01*
X101711964Y-101800941D01*
X101711964Y-102076125D01*
X101765650Y-102346023D01*
X101870959Y-102600260D01*
X102023844Y-102829068D01*
X102218429Y-103023653D01*
X102447237Y-103176538D01*
X102701474Y-103281847D01*
X102971372Y-103335533D01*
X103246556Y-103335533D01*
X103516454Y-103281847D01*
X103770691Y-103176538D01*
X103999499Y-103023653D01*
X104194084Y-102829068D01*
X104346969Y-102600260D01*
X104452278Y-102346023D01*
X104505964Y-102076125D01*
X104505964Y-101800941D01*
X104452278Y-101531043D01*
X104346969Y-101276806D01*
X104194084Y-101047998D01*
X103999499Y-100853413D01*
X103770691Y-100700528D01*
X103516454Y-100595219D01*
X103246556Y-100541533D01*
X102971372Y-100541533D01*
X102701474Y-100595219D01*
X102447237Y-100700528D01*
X102218429Y-100853413D01*
X102023844Y-101047998D01*
X101870959Y-101276806D01*
X101765650Y-101531043D01*
X101711964Y-101800941D01*
X100052520Y-101800941D01*
X96513060Y-98261482D01*
X96535000Y-98151184D01*
X96535000Y-97848816D01*
X96476011Y-97552257D01*
X96442508Y-97471372D01*
X106041533Y-97471372D01*
X106041533Y-97746556D01*
X106095219Y-98016454D01*
X106200528Y-98270691D01*
X106353413Y-98499499D01*
X106547998Y-98694084D01*
X106776806Y-98846969D01*
X107031043Y-98952278D01*
X107300941Y-99005964D01*
X107576125Y-99005964D01*
X107846023Y-98952278D01*
X108100260Y-98846969D01*
X108329068Y-98694084D01*
X108523653Y-98499499D01*
X108676538Y-98270691D01*
X108781847Y-98016454D01*
X108835533Y-97746556D01*
X108835533Y-97471372D01*
X112164467Y-97471372D01*
X112164467Y-97746556D01*
X112218153Y-98016454D01*
X112323462Y-98270691D01*
X112476347Y-98499499D01*
X112670932Y-98694084D01*
X112899740Y-98846969D01*
X113153977Y-98952278D01*
X113423875Y-99005964D01*
X113699059Y-99005964D01*
X113968957Y-98952278D01*
X114223194Y-98846969D01*
X114452002Y-98694084D01*
X114646587Y-98499499D01*
X114799472Y-98270691D01*
X114904781Y-98016454D01*
X114958467Y-97746556D01*
X114958467Y-97471372D01*
X114904781Y-97201474D01*
X114799472Y-96947237D01*
X114646587Y-96718429D01*
X114452002Y-96523844D01*
X114223194Y-96370959D01*
X113968957Y-96265650D01*
X113699059Y-96211964D01*
X113423875Y-96211964D01*
X113153977Y-96265650D01*
X112899740Y-96370959D01*
X112670932Y-96523844D01*
X112476347Y-96718429D01*
X112323462Y-96947237D01*
X112218153Y-97201474D01*
X112164467Y-97471372D01*
X108835533Y-97471372D01*
X108781847Y-97201474D01*
X108676538Y-96947237D01*
X108523653Y-96718429D01*
X108329068Y-96523844D01*
X108100260Y-96370959D01*
X107846023Y-96265650D01*
X107576125Y-96211964D01*
X107300941Y-96211964D01*
X107031043Y-96265650D01*
X106776806Y-96370959D01*
X106547998Y-96523844D01*
X106353413Y-96718429D01*
X106200528Y-96947237D01*
X106095219Y-97201474D01*
X106041533Y-97471372D01*
X96442508Y-97471372D01*
X96360299Y-97272905D01*
X96192312Y-97021495D01*
X95978505Y-96807688D01*
X95727095Y-96639701D01*
X95447743Y-96523989D01*
X95151184Y-96465000D01*
X94848816Y-96465000D01*
X94552257Y-96523989D01*
X94272905Y-96639701D01*
X94021495Y-96807688D01*
X93807688Y-97021495D01*
X93750000Y-97107831D01*
X93692312Y-97021495D01*
X93478505Y-96807688D01*
X93227095Y-96639701D01*
X92947743Y-96523989D01*
X92651184Y-96465000D01*
X92348816Y-96465000D01*
X92052257Y-96523989D01*
X91772905Y-96639701D01*
X91521495Y-96807688D01*
X91307688Y-97021495D01*
X91250000Y-97107831D01*
X91192312Y-97021495D01*
X90978505Y-96807688D01*
X90727095Y-96639701D01*
X90447743Y-96523989D01*
X90151184Y-96465000D01*
X89848816Y-96465000D01*
X89552257Y-96523989D01*
X89272905Y-96639701D01*
X89021495Y-96807688D01*
X88807688Y-97021495D01*
X88639701Y-97272905D01*
X88523989Y-97552257D01*
X88465000Y-97848816D01*
X88465000Y-98151184D01*
X88523989Y-98447743D01*
X88639701Y-98727095D01*
X88807688Y-98978505D01*
X89021495Y-99192312D01*
X89272905Y-99360299D01*
X89552257Y-99476011D01*
X89848816Y-99535000D01*
X90151184Y-99535000D01*
X90447743Y-99476011D01*
X90727095Y-99360299D01*
X90978505Y-99192312D01*
X91192312Y-98978505D01*
X91250000Y-98892169D01*
X91307688Y-98978505D01*
X91521495Y-99192312D01*
X91772905Y-99360299D01*
X92052257Y-99476011D01*
X92348816Y-99535000D01*
X92651184Y-99535000D01*
X92761482Y-99513060D01*
X93593470Y-100345049D01*
X93621183Y-100378817D01*
X93654951Y-100406530D01*
X93654953Y-100406532D01*
X93755941Y-100489411D01*
X93909687Y-100571589D01*
X94076510Y-100622195D01*
X94206523Y-100635000D01*
X94206531Y-100635000D01*
X94250000Y-100639281D01*
X94293469Y-100635000D01*
X95383422Y-100635000D01*
X97639219Y-102890798D01*
X97509525Y-102865000D01*
X96990475Y-102865000D01*
X96481399Y-102966261D01*
X96001859Y-103164893D01*
X95570285Y-103453262D01*
X95203262Y-103820285D01*
X94914893Y-104251859D01*
X94716261Y-104731399D01*
X94615000Y-105240475D01*
X94615000Y-105759525D01*
X94716261Y-106268601D01*
X94914893Y-106748141D01*
X95203262Y-107179715D01*
X95570285Y-107546738D01*
X96001859Y-107835107D01*
X96481399Y-108033739D01*
X96990475Y-108135000D01*
X97509525Y-108135000D01*
X98018601Y-108033739D01*
X98498141Y-107835107D01*
X98929715Y-107546738D01*
X99296738Y-107179715D01*
X99585107Y-106748141D01*
X99783739Y-106268601D01*
X99865000Y-105860072D01*
X99865001Y-111946486D01*
X99860719Y-111989965D01*
X99877805Y-112163455D01*
X99928412Y-112330278D01*
X100010590Y-112484024D01*
X100093468Y-112585011D01*
X100093471Y-112585014D01*
X100121184Y-112618782D01*
X100154951Y-112646494D01*
X101914989Y-114406533D01*
X101914990Y-125373000D01*
X93244578Y-125373000D01*
X91776534Y-123904956D01*
X91748817Y-123871183D01*
X91614059Y-123760589D01*
X91460313Y-123678411D01*
X91293490Y-123627805D01*
X91163477Y-123615000D01*
X91163469Y-123615000D01*
X91120000Y-123610719D01*
X91076531Y-123615000D01*
X90994216Y-123615000D01*
X90994759Y-123614637D01*
X91194637Y-123414759D01*
X91350000Y-123182241D01*
X91505363Y-123414759D01*
X91705241Y-123614637D01*
X91940273Y-123771680D01*
X92201426Y-123879853D01*
X92478665Y-123935000D01*
X92761335Y-123935000D01*
X93038574Y-123879853D01*
X93299727Y-123771680D01*
X93534759Y-123614637D01*
X93734637Y-123414759D01*
X93890000Y-123182241D01*
X94045363Y-123414759D01*
X94245241Y-123614637D01*
X94480273Y-123771680D01*
X94741426Y-123879853D01*
X95018665Y-123935000D01*
X95301335Y-123935000D01*
X95578574Y-123879853D01*
X95839727Y-123771680D01*
X96074759Y-123614637D01*
X96274637Y-123414759D01*
X96430000Y-123182241D01*
X96585363Y-123414759D01*
X96785241Y-123614637D01*
X97020273Y-123771680D01*
X97281426Y-123879853D01*
X97558665Y-123935000D01*
X97841335Y-123935000D01*
X98118574Y-123879853D01*
X98379727Y-123771680D01*
X98614759Y-123614637D01*
X98814637Y-123414759D01*
X98970000Y-123182241D01*
X99125363Y-123414759D01*
X99325241Y-123614637D01*
X99560273Y-123771680D01*
X99821426Y-123879853D01*
X100098665Y-123935000D01*
X100381335Y-123935000D01*
X100658574Y-123879853D01*
X100919727Y-123771680D01*
X101154759Y-123614637D01*
X101354637Y-123414759D01*
X101511680Y-123179727D01*
X101619853Y-122918574D01*
X101675000Y-122641335D01*
X101675000Y-122358665D01*
X101619853Y-122081426D01*
X101511680Y-121820273D01*
X101354637Y-121585241D01*
X101154759Y-121385363D01*
X100919727Y-121228320D01*
X100658574Y-121120147D01*
X100381335Y-121065000D01*
X100098665Y-121065000D01*
X99821426Y-121120147D01*
X99560273Y-121228320D01*
X99325241Y-121385363D01*
X99125363Y-121585241D01*
X98970000Y-121817759D01*
X98814637Y-121585241D01*
X98614759Y-121385363D01*
X98379727Y-121228320D01*
X98118574Y-121120147D01*
X97841335Y-121065000D01*
X97558665Y-121065000D01*
X97281426Y-121120147D01*
X97020273Y-121228320D01*
X96785241Y-121385363D01*
X96585363Y-121585241D01*
X96430000Y-121817759D01*
X96274637Y-121585241D01*
X96074759Y-121385363D01*
X95839727Y-121228320D01*
X95578574Y-121120147D01*
X95301335Y-121065000D01*
X95018665Y-121065000D01*
X94741426Y-121120147D01*
X94480273Y-121228320D01*
X94245241Y-121385363D01*
X94045363Y-121585241D01*
X93890000Y-121817759D01*
X93734637Y-121585241D01*
X93534759Y-121385363D01*
X93299727Y-121228320D01*
X93038574Y-121120147D01*
X92761335Y-121065000D01*
X92478665Y-121065000D01*
X92201426Y-121120147D01*
X91940273Y-121228320D01*
X91705241Y-121385363D01*
X91505363Y-121585241D01*
X91350000Y-121817759D01*
X91194637Y-121585241D01*
X90994759Y-121385363D01*
X90759727Y-121228320D01*
X90498574Y-121120147D01*
X90221335Y-121065000D01*
X89938665Y-121065000D01*
X89661426Y-121120147D01*
X89400273Y-121228320D01*
X89165241Y-121385363D01*
X88965363Y-121585241D01*
X88810000Y-121817759D01*
X88654637Y-121585241D01*
X88454759Y-121385363D01*
X88219727Y-121228320D01*
X87958574Y-121120147D01*
X87681335Y-121065000D01*
X87398665Y-121065000D01*
X87121426Y-121120147D01*
X86860273Y-121228320D01*
X86625241Y-121385363D01*
X86426643Y-121583961D01*
X86425812Y-121575518D01*
X86389502Y-121455820D01*
X86330537Y-121345506D01*
X86251185Y-121248815D01*
X86154494Y-121169463D01*
X86044180Y-121110498D01*
X85924482Y-121074188D01*
X85800000Y-121061928D01*
X84813507Y-121061928D01*
X83385000Y-119633422D01*
X83385000Y-115229040D01*
X83608091Y-115229040D01*
X83702930Y-115493881D01*
X83847615Y-115735131D01*
X84036586Y-115943519D01*
X84262580Y-116111037D01*
X84516913Y-116231246D01*
X84650961Y-116271904D01*
X84873000Y-116149915D01*
X84873000Y-115007000D01*
X83729376Y-115007000D01*
X83608091Y-115229040D01*
X83385000Y-115229040D01*
X83385000Y-114530960D01*
X83608091Y-114530960D01*
X83729376Y-114753000D01*
X84873000Y-114753000D01*
X84873000Y-113610085D01*
X85127000Y-113610085D01*
X85127000Y-114753000D01*
X85147000Y-114753000D01*
X85147000Y-115007000D01*
X85127000Y-115007000D01*
X85127000Y-116149915D01*
X85349039Y-116271904D01*
X85483087Y-116231246D01*
X85737420Y-116111037D01*
X85963414Y-115943519D01*
X86152385Y-115735131D01*
X86263933Y-115549135D01*
X86268320Y-115559727D01*
X86425363Y-115794759D01*
X86625241Y-115994637D01*
X86860273Y-116151680D01*
X87121426Y-116259853D01*
X87398665Y-116315000D01*
X87681335Y-116315000D01*
X87958574Y-116259853D01*
X88219727Y-116151680D01*
X88454759Y-115994637D01*
X88654637Y-115794759D01*
X88810000Y-115562241D01*
X88965363Y-115794759D01*
X89165241Y-115994637D01*
X89400273Y-116151680D01*
X89661426Y-116259853D01*
X89938665Y-116315000D01*
X90221335Y-116315000D01*
X90498574Y-116259853D01*
X90759727Y-116151680D01*
X90994759Y-115994637D01*
X91194637Y-115794759D01*
X91350000Y-115562241D01*
X91505363Y-115794759D01*
X91705241Y-115994637D01*
X91940273Y-116151680D01*
X92201426Y-116259853D01*
X92478665Y-116315000D01*
X92761335Y-116315000D01*
X93038574Y-116259853D01*
X93299727Y-116151680D01*
X93534759Y-115994637D01*
X93734637Y-115794759D01*
X93890000Y-115562241D01*
X94045363Y-115794759D01*
X94245241Y-115994637D01*
X94480273Y-116151680D01*
X94741426Y-116259853D01*
X95018665Y-116315000D01*
X95301335Y-116315000D01*
X95578574Y-116259853D01*
X95839727Y-116151680D01*
X96074759Y-115994637D01*
X96274637Y-115794759D01*
X96430000Y-115562241D01*
X96585363Y-115794759D01*
X96785241Y-115994637D01*
X97020273Y-116151680D01*
X97281426Y-116259853D01*
X97558665Y-116315000D01*
X97841335Y-116315000D01*
X98118574Y-116259853D01*
X98379727Y-116151680D01*
X98614759Y-115994637D01*
X98814637Y-115794759D01*
X98970000Y-115562241D01*
X99125363Y-115794759D01*
X99325241Y-115994637D01*
X99560273Y-116151680D01*
X99821426Y-116259853D01*
X100098665Y-116315000D01*
X100381335Y-116315000D01*
X100658574Y-116259853D01*
X100919727Y-116151680D01*
X101154759Y-115994637D01*
X101354637Y-115794759D01*
X101511680Y-115559727D01*
X101619853Y-115298574D01*
X101675000Y-115021335D01*
X101675000Y-114738665D01*
X101619853Y-114461426D01*
X101511680Y-114200273D01*
X101354637Y-113965241D01*
X101154759Y-113765363D01*
X100919727Y-113608320D01*
X100658574Y-113500147D01*
X100381335Y-113445000D01*
X100098665Y-113445000D01*
X99821426Y-113500147D01*
X99560273Y-113608320D01*
X99325241Y-113765363D01*
X99125363Y-113965241D01*
X98970000Y-114197759D01*
X98814637Y-113965241D01*
X98614759Y-113765363D01*
X98379727Y-113608320D01*
X98118574Y-113500147D01*
X97841335Y-113445000D01*
X97558665Y-113445000D01*
X97281426Y-113500147D01*
X97020273Y-113608320D01*
X96785241Y-113765363D01*
X96585363Y-113965241D01*
X96430000Y-114197759D01*
X96274637Y-113965241D01*
X96074759Y-113765363D01*
X95839727Y-113608320D01*
X95578574Y-113500147D01*
X95301335Y-113445000D01*
X95018665Y-113445000D01*
X94741426Y-113500147D01*
X94480273Y-113608320D01*
X94245241Y-113765363D01*
X94045363Y-113965241D01*
X93890000Y-114197759D01*
X93734637Y-113965241D01*
X93534759Y-113765363D01*
X93299727Y-113608320D01*
X93038574Y-113500147D01*
X92761335Y-113445000D01*
X92478665Y-113445000D01*
X92201426Y-113500147D01*
X91940273Y-113608320D01*
X91705241Y-113765363D01*
X91505363Y-113965241D01*
X91350000Y-114197759D01*
X91194637Y-113965241D01*
X90994759Y-113765363D01*
X90759727Y-113608320D01*
X90498574Y-113500147D01*
X90221335Y-113445000D01*
X89938665Y-113445000D01*
X89661426Y-113500147D01*
X89400273Y-113608320D01*
X89165241Y-113765363D01*
X88965363Y-113965241D01*
X88810000Y-114197759D01*
X88654637Y-113965241D01*
X88454759Y-113765363D01*
X88219727Y-113608320D01*
X87958574Y-113500147D01*
X87681335Y-113445000D01*
X87398665Y-113445000D01*
X87121426Y-113500147D01*
X86860273Y-113608320D01*
X86625241Y-113765363D01*
X86425363Y-113965241D01*
X86268320Y-114200273D01*
X86263933Y-114210865D01*
X86152385Y-114024869D01*
X85963414Y-113816481D01*
X85737420Y-113648963D01*
X85483087Y-113528754D01*
X85349039Y-113488096D01*
X85127000Y-113610085D01*
X84873000Y-113610085D01*
X84650961Y-113488096D01*
X84516913Y-113528754D01*
X84262580Y-113648963D01*
X84036586Y-113816481D01*
X83847615Y-114024869D01*
X83702930Y-114266119D01*
X83608091Y-114530960D01*
X83385000Y-114530960D01*
X83385000Y-113866578D01*
X84245044Y-113006535D01*
X84301898Y-112995226D01*
X84490256Y-112917205D01*
X84659774Y-112803937D01*
X84803937Y-112659774D01*
X84917205Y-112490256D01*
X84995226Y-112301898D01*
X85035000Y-112101939D01*
X85035000Y-111898061D01*
X84995226Y-111698102D01*
X84917205Y-111509744D01*
X84885000Y-111461546D01*
X84885000Y-105240475D01*
X85115000Y-105240475D01*
X85115000Y-105759525D01*
X85216261Y-106268601D01*
X85414893Y-106748141D01*
X85703262Y-107179715D01*
X86070285Y-107546738D01*
X86501859Y-107835107D01*
X86981399Y-108033739D01*
X87490475Y-108135000D01*
X88009525Y-108135000D01*
X88518601Y-108033739D01*
X88998141Y-107835107D01*
X89429715Y-107546738D01*
X89796738Y-107179715D01*
X90085107Y-106748141D01*
X90283739Y-106268601D01*
X90385000Y-105759525D01*
X90385000Y-105240475D01*
X90283739Y-104731399D01*
X90085107Y-104251859D01*
X89796738Y-103820285D01*
X89429715Y-103453262D01*
X88998141Y-103164893D01*
X88518601Y-102966261D01*
X88009525Y-102865000D01*
X87490475Y-102865000D01*
X86981399Y-102966261D01*
X86501859Y-103164893D01*
X86070285Y-103453262D01*
X85703262Y-103820285D01*
X85414893Y-104251859D01*
X85216261Y-104731399D01*
X85115000Y-105240475D01*
X84885000Y-105240475D01*
X84885000Y-90240475D01*
X85115000Y-90240475D01*
X85115000Y-90759525D01*
X85216261Y-91268601D01*
X85414893Y-91748141D01*
X85703262Y-92179715D01*
X86070285Y-92546738D01*
X86501859Y-92835107D01*
X86981399Y-93033739D01*
X87490475Y-93135000D01*
X88009525Y-93135000D01*
X88518601Y-93033739D01*
X88998141Y-92835107D01*
X89429715Y-92546738D01*
X89796738Y-92179715D01*
X90085107Y-91748141D01*
X90283739Y-91268601D01*
X90385000Y-90759525D01*
X90385000Y-90240475D01*
X94615000Y-90240475D01*
X94615000Y-90759525D01*
X94716261Y-91268601D01*
X94914893Y-91748141D01*
X95203262Y-92179715D01*
X95570285Y-92546738D01*
X96001859Y-92835107D01*
X96481399Y-93033739D01*
X96990475Y-93135000D01*
X97509525Y-93135000D01*
X98018601Y-93033739D01*
X98498141Y-92835107D01*
X98929715Y-92546738D01*
X99296738Y-92179715D01*
X99585107Y-91748141D01*
X99783739Y-91268601D01*
X99885000Y-90759525D01*
X99885000Y-90240475D01*
X103115000Y-90240475D01*
X103115000Y-90759525D01*
X103216261Y-91268601D01*
X103414893Y-91748141D01*
X103703262Y-92179715D01*
X104070285Y-92546738D01*
X104501859Y-92835107D01*
X104981399Y-93033739D01*
X105490475Y-93135000D01*
X106009525Y-93135000D01*
X106518601Y-93033739D01*
X106998141Y-92835107D01*
X107429715Y-92546738D01*
X107796738Y-92179715D01*
X108085107Y-91748141D01*
X108283739Y-91268601D01*
X108385000Y-90759525D01*
X108385000Y-90240475D01*
X112615000Y-90240475D01*
X112615000Y-90759525D01*
X112716261Y-91268601D01*
X112914893Y-91748141D01*
X113203262Y-92179715D01*
X113570285Y-92546738D01*
X114001859Y-92835107D01*
X114481399Y-93033739D01*
X114990475Y-93135000D01*
X115509525Y-93135000D01*
X116018601Y-93033739D01*
X116498141Y-92835107D01*
X116929715Y-92546738D01*
X117296738Y-92179715D01*
X117585107Y-91748141D01*
X117783739Y-91268601D01*
X117885000Y-90759525D01*
X117885000Y-90240475D01*
X117783739Y-89731399D01*
X117585107Y-89251859D01*
X117296738Y-88820285D01*
X116929715Y-88453262D01*
X116498141Y-88164893D01*
X116018601Y-87966261D01*
X115509525Y-87865000D01*
X114990475Y-87865000D01*
X114481399Y-87966261D01*
X114001859Y-88164893D01*
X113570285Y-88453262D01*
X113203262Y-88820285D01*
X112914893Y-89251859D01*
X112716261Y-89731399D01*
X112615000Y-90240475D01*
X108385000Y-90240475D01*
X108283739Y-89731399D01*
X108085107Y-89251859D01*
X107796738Y-88820285D01*
X107429715Y-88453262D01*
X106998141Y-88164893D01*
X106518601Y-87966261D01*
X106009525Y-87865000D01*
X105490475Y-87865000D01*
X104981399Y-87966261D01*
X104501859Y-88164893D01*
X104070285Y-88453262D01*
X103703262Y-88820285D01*
X103414893Y-89251859D01*
X103216261Y-89731399D01*
X103115000Y-90240475D01*
X99885000Y-90240475D01*
X99783739Y-89731399D01*
X99585107Y-89251859D01*
X99296738Y-88820285D01*
X98929715Y-88453262D01*
X98498141Y-88164893D01*
X98018601Y-87966261D01*
X97509525Y-87865000D01*
X96990475Y-87865000D01*
X96481399Y-87966261D01*
X96001859Y-88164893D01*
X95570285Y-88453262D01*
X95203262Y-88820285D01*
X94914893Y-89251859D01*
X94716261Y-89731399D01*
X94615000Y-90240475D01*
X90385000Y-90240475D01*
X90283739Y-89731399D01*
X90085107Y-89251859D01*
X89796738Y-88820285D01*
X89429715Y-88453262D01*
X88998141Y-88164893D01*
X88518601Y-87966261D01*
X88009525Y-87865000D01*
X87490475Y-87865000D01*
X86981399Y-87966261D01*
X86501859Y-88164893D01*
X86070285Y-88453262D01*
X85703262Y-88820285D01*
X85414893Y-89251859D01*
X85216261Y-89731399D01*
X85115000Y-90240475D01*
X84885000Y-90240475D01*
X84885000Y-89366578D01*
X88595049Y-85656530D01*
X88628817Y-85628817D01*
X88656534Y-85595044D01*
X89738518Y-84513060D01*
X89848816Y-84535000D01*
X90151184Y-84535000D01*
X90261482Y-84513060D01*
X91393471Y-85645050D01*
X91421184Y-85678818D01*
X91454952Y-85706531D01*
X91454954Y-85706533D01*
X91495015Y-85739410D01*
X91555942Y-85789412D01*
X91709688Y-85871590D01*
X91876511Y-85922196D01*
X92006524Y-85935001D01*
X92006534Y-85935001D01*
X92050000Y-85939282D01*
X92093466Y-85935001D01*
X105906530Y-85935001D01*
X105949999Y-85939282D01*
X105993468Y-85935001D01*
X105993476Y-85935001D01*
X106123489Y-85922196D01*
X106290312Y-85871590D01*
X106444058Y-85789412D01*
X106578816Y-85678818D01*
X106606533Y-85645045D01*
X107738518Y-84513060D01*
X107848816Y-84535000D01*
X108151184Y-84535000D01*
X108447743Y-84476011D01*
X108727095Y-84360299D01*
X108978505Y-84192312D01*
X109192312Y-83978505D01*
X109250000Y-83892169D01*
X109307688Y-83978505D01*
X109521495Y-84192312D01*
X109772905Y-84360299D01*
X110052257Y-84476011D01*
X110348816Y-84535000D01*
X110651184Y-84535000D01*
X110947743Y-84476011D01*
X111227095Y-84360299D01*
X111478505Y-84192312D01*
X111606737Y-84064080D01*
X112115525Y-84064080D01*
X112199208Y-84318261D01*
X112471775Y-84449158D01*
X112764642Y-84524365D01*
X113066553Y-84540991D01*
X113365907Y-84498397D01*
X113651199Y-84398222D01*
X113800792Y-84318261D01*
X113884475Y-84064080D01*
X113000000Y-83179605D01*
X112115525Y-84064080D01*
X111606737Y-84064080D01*
X111692312Y-83978505D01*
X111787738Y-83835690D01*
X111935920Y-83884475D01*
X112820395Y-83000000D01*
X113179605Y-83000000D01*
X114064080Y-83884475D01*
X114318261Y-83800792D01*
X114449158Y-83528225D01*
X114524365Y-83235358D01*
X114540991Y-82933447D01*
X114498397Y-82634093D01*
X114398222Y-82348801D01*
X114318261Y-82199208D01*
X114064080Y-82115525D01*
X113179605Y-83000000D01*
X112820395Y-83000000D01*
X111935920Y-82115525D01*
X111787738Y-82164310D01*
X111692312Y-82021495D01*
X111606737Y-81935920D01*
X112115525Y-81935920D01*
X113000000Y-82820395D01*
X113884475Y-81935920D01*
X113800792Y-81681739D01*
X113528225Y-81550842D01*
X113235358Y-81475635D01*
X112933447Y-81459009D01*
X112634093Y-81501603D01*
X112348801Y-81601778D01*
X112199208Y-81681739D01*
X112115525Y-81935920D01*
X111606737Y-81935920D01*
X111478505Y-81807688D01*
X111227095Y-81639701D01*
X110947743Y-81523989D01*
X110651184Y-81465000D01*
X110348816Y-81465000D01*
X110052257Y-81523989D01*
X109772905Y-81639701D01*
X109521495Y-81807688D01*
X109307688Y-82021495D01*
X109250000Y-82107831D01*
X109192312Y-82021495D01*
X108978505Y-81807688D01*
X108727095Y-81639701D01*
X108447743Y-81523989D01*
X108151184Y-81465000D01*
X107848816Y-81465000D01*
X107552257Y-81523989D01*
X107272905Y-81639701D01*
X107021495Y-81807688D01*
X106807688Y-82021495D01*
X106639701Y-82272905D01*
X106523989Y-82552257D01*
X106465000Y-82848816D01*
X106465000Y-83151184D01*
X106486940Y-83261482D01*
X105583421Y-84165001D01*
X95851249Y-84165001D01*
X95884475Y-84064080D01*
X95000000Y-83179605D01*
X94115525Y-84064080D01*
X94148751Y-84165001D01*
X93505816Y-84165001D01*
X93692312Y-83978505D01*
X93787738Y-83835690D01*
X93935920Y-83884475D01*
X94820395Y-83000000D01*
X95179605Y-83000000D01*
X96064080Y-83884475D01*
X96318261Y-83800792D01*
X96449158Y-83528225D01*
X96524365Y-83235358D01*
X96540991Y-82933447D01*
X96498397Y-82634093D01*
X96398222Y-82348801D01*
X96318261Y-82199208D01*
X96064080Y-82115525D01*
X95179605Y-83000000D01*
X94820395Y-83000000D01*
X93935920Y-82115525D01*
X93787738Y-82164310D01*
X93692312Y-82021495D01*
X93606737Y-81935920D01*
X94115525Y-81935920D01*
X95000000Y-82820395D01*
X95884475Y-81935920D01*
X95800792Y-81681739D01*
X95528225Y-81550842D01*
X95235358Y-81475635D01*
X94933447Y-81459009D01*
X94634093Y-81501603D01*
X94348801Y-81601778D01*
X94199208Y-81681739D01*
X94115525Y-81935920D01*
X93606737Y-81935920D01*
X93478505Y-81807688D01*
X93227095Y-81639701D01*
X92947743Y-81523989D01*
X92651184Y-81465000D01*
X92348816Y-81465000D01*
X92052257Y-81523989D01*
X91772905Y-81639701D01*
X91521495Y-81807688D01*
X91307688Y-82021495D01*
X91250000Y-82107831D01*
X91192312Y-82021495D01*
X90978505Y-81807688D01*
X90727095Y-81639701D01*
X90447743Y-81523989D01*
X90151184Y-81465000D01*
X89848816Y-81465000D01*
X89552257Y-81523989D01*
X89272905Y-81639701D01*
X89021495Y-81807688D01*
X88807688Y-82021495D01*
X88639701Y-82272905D01*
X88523989Y-82552257D01*
X88465000Y-82848816D01*
X88465000Y-83151184D01*
X88486940Y-83261482D01*
X87633422Y-84115000D01*
X77867711Y-84115000D01*
X77884475Y-84064080D01*
X77000000Y-83179605D01*
X76115525Y-84064080D01*
X76132289Y-84115000D01*
X75555817Y-84115000D01*
X75692312Y-83978505D01*
X75787738Y-83835690D01*
X75935920Y-83884475D01*
X76820395Y-83000000D01*
X77179605Y-83000000D01*
X78064080Y-83884475D01*
X78318261Y-83800792D01*
X78449158Y-83528225D01*
X78524365Y-83235358D01*
X78540991Y-82933447D01*
X78498397Y-82634093D01*
X78398222Y-82348801D01*
X78318261Y-82199208D01*
X78064080Y-82115525D01*
X77179605Y-83000000D01*
X76820395Y-83000000D01*
X75935920Y-82115525D01*
X75787738Y-82164310D01*
X75692312Y-82021495D01*
X75606737Y-81935920D01*
X76115525Y-81935920D01*
X77000000Y-82820395D01*
X77884475Y-81935920D01*
X77800792Y-81681739D01*
X77528225Y-81550842D01*
X77235358Y-81475635D01*
X76933447Y-81459009D01*
X76634093Y-81501603D01*
X76348801Y-81601778D01*
X76199208Y-81681739D01*
X76115525Y-81935920D01*
X75606737Y-81935920D01*
X75478505Y-81807688D01*
X75227095Y-81639701D01*
X74947743Y-81523989D01*
X74651184Y-81465000D01*
X74348816Y-81465000D01*
X74052257Y-81523989D01*
X73772905Y-81639701D01*
X73521495Y-81807688D01*
X73307688Y-82021495D01*
X73250000Y-82107831D01*
X73192312Y-82021495D01*
X72978505Y-81807688D01*
X72727095Y-81639701D01*
X72447743Y-81523989D01*
X72151184Y-81465000D01*
X71848816Y-81465000D01*
X71552257Y-81523989D01*
X71272905Y-81639701D01*
X71021495Y-81807688D01*
X70807688Y-82021495D01*
X70639701Y-82272905D01*
X70523989Y-82552257D01*
X70465000Y-82848816D01*
X70465000Y-83151184D01*
X70523989Y-83447743D01*
X70639701Y-83727095D01*
X70807688Y-83978505D01*
X71021495Y-84192312D01*
X71272905Y-84360299D01*
X71552257Y-84476011D01*
X71848816Y-84535000D01*
X72151184Y-84535000D01*
X72261482Y-84513060D01*
X73343468Y-85595047D01*
X73371183Y-85628817D01*
X73404951Y-85656530D01*
X73404953Y-85656532D01*
X73432109Y-85678818D01*
X73505941Y-85739411D01*
X73659687Y-85821589D01*
X73826510Y-85872195D01*
X73956523Y-85885000D01*
X73956533Y-85885000D01*
X73999999Y-85889281D01*
X74043465Y-85885000D01*
X85863421Y-85885000D01*
X83404951Y-88343470D01*
X83371184Y-88371183D01*
X83343471Y-88404951D01*
X83343468Y-88404954D01*
X83260590Y-88505941D01*
X83178412Y-88659687D01*
X83127805Y-88826510D01*
X83110719Y-89000000D01*
X83115001Y-89043479D01*
X83115000Y-101255793D01*
X82976156Y-101047998D01*
X82781571Y-100853413D01*
X82552763Y-100700528D01*
X82298526Y-100595219D01*
X82028628Y-100541533D01*
X81753444Y-100541533D01*
X81483546Y-100595219D01*
X81229309Y-100700528D01*
X81000501Y-100853413D01*
X80805916Y-101047998D01*
X80653031Y-101276806D01*
X80547722Y-101531043D01*
X80494036Y-101800941D01*
X80494036Y-102076125D01*
X80547722Y-102346023D01*
X80653031Y-102600260D01*
X80805916Y-102829068D01*
X81000501Y-103023653D01*
X81229309Y-103176538D01*
X81483546Y-103281847D01*
X81753444Y-103335533D01*
X82028628Y-103335533D01*
X82298526Y-103281847D01*
X82552763Y-103176538D01*
X82781571Y-103023653D01*
X82976156Y-102829068D01*
X83115000Y-102621273D01*
X83115000Y-107378727D01*
X82976156Y-107170932D01*
X82781571Y-106976347D01*
X82552763Y-106823462D01*
X82298526Y-106718153D01*
X82028628Y-106664467D01*
X81753444Y-106664467D01*
X81483546Y-106718153D01*
X81229309Y-106823462D01*
X81000501Y-106976347D01*
X80805916Y-107170932D01*
X80653031Y-107399740D01*
X80547722Y-107653977D01*
X80494036Y-107923875D01*
X80494036Y-108199059D01*
X80547722Y-108468957D01*
X80653031Y-108723194D01*
X80805916Y-108952002D01*
X81000501Y-109146587D01*
X81229309Y-109299472D01*
X81483546Y-109404781D01*
X81753444Y-109458467D01*
X82028628Y-109458467D01*
X82298526Y-109404781D01*
X82552763Y-109299472D01*
X82781571Y-109146587D01*
X82976156Y-108952002D01*
X83115000Y-108744208D01*
X83115000Y-111461546D01*
X83082795Y-111509744D01*
X83004774Y-111698102D01*
X82993465Y-111754956D01*
X81904951Y-112843471D01*
X81871184Y-112871183D01*
X81843471Y-112904951D01*
X81843468Y-112904954D01*
X81760590Y-113005941D01*
X81678412Y-113159687D01*
X81627805Y-113326510D01*
X81610719Y-113500000D01*
X81615001Y-113543479D01*
X81615000Y-119956531D01*
X81610719Y-120000000D01*
X81615000Y-120043469D01*
X81615000Y-120043476D01*
X81627805Y-120173489D01*
X81678411Y-120340312D01*
X81760589Y-120494058D01*
X81871183Y-120628817D01*
X81904956Y-120656534D01*
X83561928Y-122313507D01*
X83561928Y-123300000D01*
X83574188Y-123424482D01*
X83610498Y-123544180D01*
X83648353Y-123615000D01*
X78543469Y-123615000D01*
X78500000Y-123610719D01*
X78456531Y-123615000D01*
X78456523Y-123615000D01*
X78326510Y-123627805D01*
X78159687Y-123678411D01*
X78023535Y-123751185D01*
X78005941Y-123760589D01*
X77904953Y-123843468D01*
X77904951Y-123843470D01*
X77871183Y-123871183D01*
X77843470Y-123904951D01*
X74383422Y-127365000D01*
X71929701Y-127365000D01*
X71925812Y-127325518D01*
X71889502Y-127205820D01*
X71830537Y-127095506D01*
X71751185Y-126998815D01*
X71654494Y-126919463D01*
X71544180Y-126860498D01*
X71424482Y-126824188D01*
X71300000Y-126811928D01*
X69700000Y-126811928D01*
X69575518Y-126824188D01*
X69455820Y-126860498D01*
X69345506Y-126919463D01*
X69248815Y-126998815D01*
X69169463Y-127095506D01*
X69110498Y-127205820D01*
X69074188Y-127325518D01*
X69061928Y-127450000D01*
X69061928Y-129050000D01*
X69074188Y-129174482D01*
X69110498Y-129294180D01*
X69169463Y-129404494D01*
X69248815Y-129501185D01*
X69345506Y-129580537D01*
X69455820Y-129639502D01*
X69575518Y-129675812D01*
X69700000Y-129688072D01*
X71300000Y-129688072D01*
X71424482Y-129675812D01*
X71544180Y-129639502D01*
X71654494Y-129580537D01*
X71751185Y-129501185D01*
X71830537Y-129404494D01*
X71889502Y-129294180D01*
X71925812Y-129174482D01*
X71929701Y-129135000D01*
X74706531Y-129135000D01*
X74750000Y-129139281D01*
X74793469Y-129135000D01*
X74793477Y-129135000D01*
X74923490Y-129122195D01*
X75090313Y-129071589D01*
X75244059Y-128989411D01*
X75378817Y-128878817D01*
X75406534Y-128845044D01*
X75601578Y-128650000D01*
X76011928Y-128650000D01*
X76011928Y-130350000D01*
X76024188Y-130474482D01*
X76060498Y-130594180D01*
X76119463Y-130704494D01*
X76198815Y-130801185D01*
X76295506Y-130880537D01*
X76405820Y-130939502D01*
X76486466Y-130963966D01*
X76402412Y-131039731D01*
X76228359Y-131273080D01*
X76103175Y-131535901D01*
X76058524Y-131683110D01*
X76179845Y-131913000D01*
X77373000Y-131913000D01*
X77373000Y-131893000D01*
X77627000Y-131893000D01*
X77627000Y-131913000D01*
X78820155Y-131913000D01*
X78941476Y-131683110D01*
X78896825Y-131535901D01*
X78771641Y-131273080D01*
X78597588Y-131039731D01*
X78513534Y-130963966D01*
X78594180Y-130939502D01*
X78704494Y-130880537D01*
X78801185Y-130801185D01*
X78880537Y-130704494D01*
X78939502Y-130594180D01*
X78975812Y-130474482D01*
X78988072Y-130350000D01*
X78988072Y-128650000D01*
X78975812Y-128525518D01*
X78939502Y-128405820D01*
X78880537Y-128295506D01*
X78801185Y-128198815D01*
X78704494Y-128119463D01*
X78594180Y-128060498D01*
X78474482Y-128024188D01*
X78350000Y-128011928D01*
X76650000Y-128011928D01*
X76525518Y-128024188D01*
X76405820Y-128060498D01*
X76295506Y-128119463D01*
X76198815Y-128198815D01*
X76119463Y-128295506D01*
X76060498Y-128405820D01*
X76024188Y-128525518D01*
X76011928Y-128650000D01*
X75601578Y-128650000D01*
X78866579Y-125385000D01*
X79947034Y-125385000D01*
X79929443Y-125394403D01*
X79910197Y-125410197D01*
X79894403Y-125429443D01*
X79882667Y-125451399D01*
X79875440Y-125475224D01*
X79873000Y-125500000D01*
X79873000Y-139840000D01*
X67532279Y-139840000D01*
X67240340Y-139811375D01*
X66990571Y-139735965D01*
X66760206Y-139613477D01*
X66558021Y-139448579D01*
X66391712Y-139247546D01*
X66267622Y-139018046D01*
X66190469Y-138768805D01*
X66160000Y-138478911D01*
X66160000Y-137856891D01*
X69018519Y-137856891D01*
X69115843Y-138131252D01*
X69264822Y-138381355D01*
X69459731Y-138597588D01*
X69693080Y-138771641D01*
X69955901Y-138896825D01*
X70103110Y-138941476D01*
X70333000Y-138820155D01*
X70333000Y-137627000D01*
X69139186Y-137627000D01*
X69018519Y-137856891D01*
X66160000Y-137856891D01*
X66160000Y-137143109D01*
X69018519Y-137143109D01*
X69139186Y-137373000D01*
X70333000Y-137373000D01*
X70333000Y-136179845D01*
X70587000Y-136179845D01*
X70587000Y-137373000D01*
X70607000Y-137373000D01*
X70607000Y-137627000D01*
X70587000Y-137627000D01*
X70587000Y-138820155D01*
X70816890Y-138941476D01*
X70964099Y-138896825D01*
X71226920Y-138771641D01*
X71460269Y-138597588D01*
X71536034Y-138513534D01*
X71560498Y-138594180D01*
X71619463Y-138704494D01*
X71698815Y-138801185D01*
X71795506Y-138880537D01*
X71905820Y-138939502D01*
X72025518Y-138975812D01*
X72150000Y-138988072D01*
X73850000Y-138988072D01*
X73974482Y-138975812D01*
X74094180Y-138939502D01*
X74204494Y-138880537D01*
X74301185Y-138801185D01*
X74380537Y-138704494D01*
X74439502Y-138594180D01*
X74475812Y-138474482D01*
X74488072Y-138350000D01*
X74488072Y-136650000D01*
X76011928Y-136650000D01*
X76011928Y-138350000D01*
X76024188Y-138474482D01*
X76060498Y-138594180D01*
X76119463Y-138704494D01*
X76198815Y-138801185D01*
X76295506Y-138880537D01*
X76405820Y-138939502D01*
X76525518Y-138975812D01*
X76650000Y-138988072D01*
X78350000Y-138988072D01*
X78474482Y-138975812D01*
X78594180Y-138939502D01*
X78704494Y-138880537D01*
X78801185Y-138801185D01*
X78880537Y-138704494D01*
X78939502Y-138594180D01*
X78975812Y-138474482D01*
X78988072Y-138350000D01*
X78988072Y-136650000D01*
X78975812Y-136525518D01*
X78939502Y-136405820D01*
X78880537Y-136295506D01*
X78801185Y-136198815D01*
X78704494Y-136119463D01*
X78594180Y-136060498D01*
X78474482Y-136024188D01*
X78350000Y-136011928D01*
X76650000Y-136011928D01*
X76525518Y-136024188D01*
X76405820Y-136060498D01*
X76295506Y-136119463D01*
X76198815Y-136198815D01*
X76119463Y-136295506D01*
X76060498Y-136405820D01*
X76024188Y-136525518D01*
X76011928Y-136650000D01*
X74488072Y-136650000D01*
X74475812Y-136525518D01*
X74439502Y-136405820D01*
X74380537Y-136295506D01*
X74301185Y-136198815D01*
X74204494Y-136119463D01*
X74094180Y-136060498D01*
X73974482Y-136024188D01*
X73850000Y-136011928D01*
X72150000Y-136011928D01*
X72025518Y-136024188D01*
X71905820Y-136060498D01*
X71795506Y-136119463D01*
X71698815Y-136198815D01*
X71619463Y-136295506D01*
X71560498Y-136405820D01*
X71536034Y-136486466D01*
X71460269Y-136402412D01*
X71226920Y-136228359D01*
X70964099Y-136103175D01*
X70816890Y-136058524D01*
X70587000Y-136179845D01*
X70333000Y-136179845D01*
X70103110Y-136058524D01*
X69955901Y-136103175D01*
X69693080Y-136228359D01*
X69459731Y-136402412D01*
X69264822Y-136618645D01*
X69115843Y-136868748D01*
X69018519Y-137143109D01*
X66160000Y-137143109D01*
X66160000Y-134242702D01*
X69686903Y-134242702D01*
X69758486Y-134486671D01*
X70013996Y-134607571D01*
X70288184Y-134676300D01*
X70570512Y-134690217D01*
X70850130Y-134648787D01*
X71116292Y-134553603D01*
X71241514Y-134486671D01*
X71313097Y-134242702D01*
X70500000Y-133429605D01*
X69686903Y-134242702D01*
X66160000Y-134242702D01*
X66160000Y-133320512D01*
X69059783Y-133320512D01*
X69101213Y-133600130D01*
X69196397Y-133866292D01*
X69263329Y-133991514D01*
X69507298Y-134063097D01*
X70320395Y-133250000D01*
X70679605Y-133250000D01*
X71492702Y-134063097D01*
X71736671Y-133991514D01*
X71857571Y-133736004D01*
X71926300Y-133461816D01*
X71940217Y-133179488D01*
X71898787Y-132899870D01*
X71803603Y-132633708D01*
X71736671Y-132508486D01*
X71492702Y-132436903D01*
X70679605Y-133250000D01*
X70320395Y-133250000D01*
X69507298Y-132436903D01*
X69263329Y-132508486D01*
X69142429Y-132763996D01*
X69073700Y-133038184D01*
X69059783Y-133320512D01*
X66160000Y-133320512D01*
X66160000Y-132257298D01*
X69686903Y-132257298D01*
X70500000Y-133070395D01*
X71173505Y-132396890D01*
X76058524Y-132396890D01*
X76103175Y-132544099D01*
X76228359Y-132806920D01*
X76402412Y-133040269D01*
X76618645Y-133235178D01*
X76868748Y-133384157D01*
X77143109Y-133481481D01*
X77373000Y-133360814D01*
X77373000Y-132167000D01*
X77627000Y-132167000D01*
X77627000Y-133360814D01*
X77856891Y-133481481D01*
X78131252Y-133384157D01*
X78381355Y-133235178D01*
X78597588Y-133040269D01*
X78771641Y-132806920D01*
X78896825Y-132544099D01*
X78941476Y-132396890D01*
X78820155Y-132167000D01*
X77627000Y-132167000D01*
X77373000Y-132167000D01*
X76179845Y-132167000D01*
X76058524Y-132396890D01*
X71173505Y-132396890D01*
X71313097Y-132257298D01*
X71241514Y-132013329D01*
X70986004Y-131892429D01*
X70711816Y-131823700D01*
X70429488Y-131809783D01*
X70149870Y-131851213D01*
X69883708Y-131946397D01*
X69758486Y-132013329D01*
X69686903Y-132257298D01*
X66160000Y-132257298D01*
X66160000Y-112253444D01*
X70041533Y-112253444D01*
X70041533Y-112528628D01*
X70095219Y-112798526D01*
X70200528Y-113052763D01*
X70353413Y-113281571D01*
X70547998Y-113476156D01*
X70776806Y-113629041D01*
X71031043Y-113734350D01*
X71300941Y-113788036D01*
X71576125Y-113788036D01*
X71846023Y-113734350D01*
X72100260Y-113629041D01*
X72329068Y-113476156D01*
X72523653Y-113281571D01*
X72676538Y-113052763D01*
X72781847Y-112798526D01*
X72835533Y-112528628D01*
X72835533Y-112253444D01*
X76164467Y-112253444D01*
X76164467Y-112528628D01*
X76218153Y-112798526D01*
X76323462Y-113052763D01*
X76476347Y-113281571D01*
X76670932Y-113476156D01*
X76899740Y-113629041D01*
X77153977Y-113734350D01*
X77423875Y-113788036D01*
X77699059Y-113788036D01*
X77968957Y-113734350D01*
X78223194Y-113629041D01*
X78452002Y-113476156D01*
X78646587Y-113281571D01*
X78799472Y-113052763D01*
X78904781Y-112798526D01*
X78958467Y-112528628D01*
X78958467Y-112253444D01*
X78904781Y-111983546D01*
X78799472Y-111729309D01*
X78646587Y-111500501D01*
X78452002Y-111305916D01*
X78223194Y-111153031D01*
X77968957Y-111047722D01*
X77699059Y-110994036D01*
X77423875Y-110994036D01*
X77153977Y-111047722D01*
X76899740Y-111153031D01*
X76670932Y-111305916D01*
X76476347Y-111500501D01*
X76323462Y-111729309D01*
X76218153Y-111983546D01*
X76164467Y-112253444D01*
X72835533Y-112253444D01*
X72781847Y-111983546D01*
X72676538Y-111729309D01*
X72523653Y-111500501D01*
X72329068Y-111305916D01*
X72100260Y-111153031D01*
X71846023Y-111047722D01*
X71576125Y-110994036D01*
X71300941Y-110994036D01*
X71031043Y-111047722D01*
X70776806Y-111153031D01*
X70547998Y-111305916D01*
X70353413Y-111500501D01*
X70200528Y-111729309D01*
X70095219Y-111983546D01*
X70041533Y-112253444D01*
X66160000Y-112253444D01*
X66160000Y-109088158D01*
X66218429Y-109146587D01*
X66447237Y-109299472D01*
X66701474Y-109404781D01*
X66971372Y-109458467D01*
X67246556Y-109458467D01*
X67516454Y-109404781D01*
X67770691Y-109299472D01*
X67999499Y-109146587D01*
X68194084Y-108952002D01*
X68346969Y-108723194D01*
X68452278Y-108468957D01*
X68505964Y-108199059D01*
X68505964Y-107923875D01*
X68452278Y-107653977D01*
X68393638Y-107512408D01*
X73103000Y-107512408D01*
X73103000Y-107787592D01*
X73156686Y-108057490D01*
X73261995Y-108311727D01*
X73414880Y-108540535D01*
X73609465Y-108735120D01*
X73838273Y-108888005D01*
X74092510Y-108993314D01*
X74362408Y-109047000D01*
X74637592Y-109047000D01*
X74907490Y-108993314D01*
X75161727Y-108888005D01*
X75390535Y-108735120D01*
X75585120Y-108540535D01*
X75738005Y-108311727D01*
X75843314Y-108057490D01*
X75897000Y-107787592D01*
X75897000Y-107512408D01*
X75843314Y-107242510D01*
X75738005Y-106988273D01*
X75585120Y-106759465D01*
X75390535Y-106564880D01*
X75161727Y-106411995D01*
X74907490Y-106306686D01*
X74637592Y-106253000D01*
X74362408Y-106253000D01*
X74092510Y-106306686D01*
X73838273Y-106411995D01*
X73609465Y-106564880D01*
X73414880Y-106759465D01*
X73261995Y-106988273D01*
X73156686Y-107242510D01*
X73103000Y-107512408D01*
X68393638Y-107512408D01*
X68346969Y-107399740D01*
X68194084Y-107170932D01*
X67999499Y-106976347D01*
X67770691Y-106823462D01*
X67516454Y-106718153D01*
X67246556Y-106664467D01*
X66971372Y-106664467D01*
X66701474Y-106718153D01*
X66447237Y-106823462D01*
X66218429Y-106976347D01*
X66160000Y-107034776D01*
X66160000Y-102965224D01*
X66218429Y-103023653D01*
X66447237Y-103176538D01*
X66701474Y-103281847D01*
X66971372Y-103335533D01*
X67246556Y-103335533D01*
X67516454Y-103281847D01*
X67770691Y-103176538D01*
X67999499Y-103023653D01*
X68194084Y-102829068D01*
X68346969Y-102600260D01*
X68452278Y-102346023D01*
X68505964Y-102076125D01*
X68505964Y-101800941D01*
X68452278Y-101531043D01*
X68346969Y-101276806D01*
X68194084Y-101047998D01*
X67999499Y-100853413D01*
X67770691Y-100700528D01*
X67516454Y-100595219D01*
X67246556Y-100541533D01*
X66971372Y-100541533D01*
X66701474Y-100595219D01*
X66447237Y-100700528D01*
X66218429Y-100853413D01*
X66160000Y-100911842D01*
X66160000Y-97471372D01*
X70041533Y-97471372D01*
X70041533Y-97746556D01*
X70095219Y-98016454D01*
X70200528Y-98270691D01*
X70353413Y-98499499D01*
X70547998Y-98694084D01*
X70776806Y-98846969D01*
X71031043Y-98952278D01*
X71300941Y-99005964D01*
X71576125Y-99005964D01*
X71846023Y-98952278D01*
X72100260Y-98846969D01*
X72329068Y-98694084D01*
X72523653Y-98499499D01*
X72676538Y-98270691D01*
X72781847Y-98016454D01*
X72835533Y-97746556D01*
X72835533Y-97471372D01*
X76164467Y-97471372D01*
X76164467Y-97746556D01*
X76218153Y-98016454D01*
X76323462Y-98270691D01*
X76476347Y-98499499D01*
X76670932Y-98694084D01*
X76899740Y-98846969D01*
X77153977Y-98952278D01*
X77423875Y-99005964D01*
X77699059Y-99005964D01*
X77968957Y-98952278D01*
X78223194Y-98846969D01*
X78452002Y-98694084D01*
X78646587Y-98499499D01*
X78799472Y-98270691D01*
X78904781Y-98016454D01*
X78958467Y-97746556D01*
X78958467Y-97471372D01*
X78904781Y-97201474D01*
X78799472Y-96947237D01*
X78646587Y-96718429D01*
X78452002Y-96523844D01*
X78223194Y-96370959D01*
X77968957Y-96265650D01*
X77699059Y-96211964D01*
X77423875Y-96211964D01*
X77153977Y-96265650D01*
X76899740Y-96370959D01*
X76670932Y-96523844D01*
X76476347Y-96718429D01*
X76323462Y-96947237D01*
X76218153Y-97201474D01*
X76164467Y-97471372D01*
X72835533Y-97471372D01*
X72781847Y-97201474D01*
X72676538Y-96947237D01*
X72523653Y-96718429D01*
X72329068Y-96523844D01*
X72100260Y-96370959D01*
X71846023Y-96265650D01*
X71576125Y-96211964D01*
X71300941Y-96211964D01*
X71031043Y-96265650D01*
X70776806Y-96370959D01*
X70547998Y-96523844D01*
X70353413Y-96718429D01*
X70200528Y-96947237D01*
X70095219Y-97201474D01*
X70041533Y-97471372D01*
X66160000Y-97471372D01*
X66160000Y-90240475D01*
X67115000Y-90240475D01*
X67115000Y-90759525D01*
X67216261Y-91268601D01*
X67414893Y-91748141D01*
X67703262Y-92179715D01*
X68070285Y-92546738D01*
X68501859Y-92835107D01*
X68981399Y-93033739D01*
X69490475Y-93135000D01*
X70009525Y-93135000D01*
X70518601Y-93033739D01*
X70998141Y-92835107D01*
X71429715Y-92546738D01*
X71796738Y-92179715D01*
X72085107Y-91748141D01*
X72283739Y-91268601D01*
X72385000Y-90759525D01*
X72385000Y-90240475D01*
X76615000Y-90240475D01*
X76615000Y-90759525D01*
X76716261Y-91268601D01*
X76914893Y-91748141D01*
X77203262Y-92179715D01*
X77570285Y-92546738D01*
X78001859Y-92835107D01*
X78481399Y-93033739D01*
X78990475Y-93135000D01*
X79509525Y-93135000D01*
X80018601Y-93033739D01*
X80498141Y-92835107D01*
X80929715Y-92546738D01*
X81296738Y-92179715D01*
X81585107Y-91748141D01*
X81783739Y-91268601D01*
X81885000Y-90759525D01*
X81885000Y-90240475D01*
X81783739Y-89731399D01*
X81585107Y-89251859D01*
X81296738Y-88820285D01*
X80929715Y-88453262D01*
X80498141Y-88164893D01*
X80018601Y-87966261D01*
X79509525Y-87865000D01*
X78990475Y-87865000D01*
X78481399Y-87966261D01*
X78001859Y-88164893D01*
X77570285Y-88453262D01*
X77203262Y-88820285D01*
X76914893Y-89251859D01*
X76716261Y-89731399D01*
X76615000Y-90240475D01*
X72385000Y-90240475D01*
X72283739Y-89731399D01*
X72085107Y-89251859D01*
X71796738Y-88820285D01*
X71429715Y-88453262D01*
X70998141Y-88164893D01*
X70518601Y-87966261D01*
X70009525Y-87865000D01*
X69490475Y-87865000D01*
X68981399Y-87966261D01*
X68501859Y-88164893D01*
X68070285Y-88453262D01*
X67703262Y-88820285D01*
X67414893Y-89251859D01*
X67216261Y-89731399D01*
X67115000Y-90240475D01*
X66160000Y-90240475D01*
X66160000Y-82532279D01*
X66188625Y-82240341D01*
X66264035Y-81990571D01*
X66386522Y-81760208D01*
X66551422Y-81558020D01*
X66752450Y-81391714D01*
X66981954Y-81267622D01*
X67231195Y-81190469D01*
X67521088Y-81160000D01*
X117467721Y-81160000D01*
X117759659Y-81188625D01*
G36*
X107621422Y-125373000D02*
G01*
X103684989Y-125373000D01*
X103684989Y-121436567D01*
X107621422Y-125373000D01*
G37*
X107621422Y-125373000D02*
X103684989Y-125373000D01*
X103684989Y-121436567D01*
X107621422Y-125373000D01*
G36*
X95191983Y-129823561D02*
G01*
X95185000Y-129858665D01*
X95185000Y-130141335D01*
X95240147Y-130418574D01*
X95348320Y-130679727D01*
X95505363Y-130914759D01*
X95705241Y-131114637D01*
X95937759Y-131270000D01*
X95705241Y-131425363D01*
X95505363Y-131625241D01*
X95348320Y-131860273D01*
X95240147Y-132121426D01*
X95185000Y-132398665D01*
X95185000Y-132681335D01*
X95240147Y-132958574D01*
X95348320Y-133219727D01*
X95505363Y-133454759D01*
X95705241Y-133654637D01*
X95937759Y-133810000D01*
X95705241Y-133965363D01*
X95505363Y-134165241D01*
X95348320Y-134400273D01*
X95240147Y-134661426D01*
X95185000Y-134938665D01*
X95185000Y-135221335D01*
X95240147Y-135498574D01*
X95348320Y-135759727D01*
X95505363Y-135994759D01*
X95705241Y-136194637D01*
X95937759Y-136350000D01*
X95705241Y-136505363D01*
X95505363Y-136705241D01*
X95348320Y-136940273D01*
X95240147Y-137201426D01*
X95185000Y-137478665D01*
X95185000Y-137761335D01*
X95240147Y-138038574D01*
X95348320Y-138299727D01*
X95505363Y-138534759D01*
X95705241Y-138734637D01*
X95940273Y-138891680D01*
X96201426Y-138999853D01*
X96478665Y-139055000D01*
X96761335Y-139055000D01*
X97038574Y-138999853D01*
X97299727Y-138891680D01*
X97534759Y-138734637D01*
X97734637Y-138534759D01*
X97891680Y-138299727D01*
X97999853Y-138038574D01*
X98055000Y-137761335D01*
X98055000Y-137478665D01*
X97999853Y-137201426D01*
X97891680Y-136940273D01*
X97734637Y-136705241D01*
X97534759Y-136505363D01*
X97302241Y-136350000D01*
X97534759Y-136194637D01*
X97734637Y-135994759D01*
X97754521Y-135965000D01*
X98053422Y-135965000D01*
X99263470Y-137175049D01*
X99291183Y-137208817D01*
X99324951Y-137236530D01*
X99324953Y-137236532D01*
X99366905Y-137270961D01*
X99425941Y-137319411D01*
X99579687Y-137401589D01*
X99746510Y-137452195D01*
X99876523Y-137465000D01*
X99876533Y-137465000D01*
X99919999Y-137469281D01*
X99963465Y-137465000D01*
X104542546Y-137465000D01*
X104524188Y-137525518D01*
X104511928Y-137650000D01*
X104511928Y-139350000D01*
X104524188Y-139474482D01*
X104560498Y-139594180D01*
X104619463Y-139704494D01*
X104698815Y-139801185D01*
X104746111Y-139840000D01*
X82605802Y-139840000D01*
X82659774Y-139803937D01*
X82803937Y-139659774D01*
X82917205Y-139490256D01*
X82995226Y-139301898D01*
X83035000Y-139101939D01*
X83035000Y-138898061D01*
X82995226Y-138698102D01*
X82917205Y-138509744D01*
X82803937Y-138340226D01*
X82659774Y-138196063D01*
X82490256Y-138082795D01*
X82301898Y-138004774D01*
X82122245Y-137969039D01*
X87608096Y-137969039D01*
X87648754Y-138103087D01*
X87768963Y-138357420D01*
X87936481Y-138583414D01*
X88144869Y-138772385D01*
X88386119Y-138917070D01*
X88650960Y-139011909D01*
X88873000Y-138890624D01*
X88873000Y-137747000D01*
X89127000Y-137747000D01*
X89127000Y-138890624D01*
X89349040Y-139011909D01*
X89613881Y-138917070D01*
X89855131Y-138772385D01*
X90063519Y-138583414D01*
X90231037Y-138357420D01*
X90351246Y-138103087D01*
X90391904Y-137969039D01*
X90269915Y-137747000D01*
X89127000Y-137747000D01*
X88873000Y-137747000D01*
X87730085Y-137747000D01*
X87608096Y-137969039D01*
X82122245Y-137969039D01*
X82101939Y-137965000D01*
X81898061Y-137965000D01*
X81698102Y-138004774D01*
X81509744Y-138082795D01*
X81340226Y-138196063D01*
X81196063Y-138340226D01*
X81127000Y-138443586D01*
X81127000Y-129200000D01*
X87561928Y-129200000D01*
X87561928Y-130800000D01*
X87574188Y-130924482D01*
X87610498Y-131044180D01*
X87669463Y-131154494D01*
X87748815Y-131251185D01*
X87845506Y-131330537D01*
X87955820Y-131389502D01*
X88075518Y-131425812D01*
X88083961Y-131426643D01*
X87885363Y-131625241D01*
X87728320Y-131860273D01*
X87620147Y-132121426D01*
X87565000Y-132398665D01*
X87565000Y-132681335D01*
X87620147Y-132958574D01*
X87728320Y-133219727D01*
X87885363Y-133454759D01*
X88085241Y-133654637D01*
X88317759Y-133810000D01*
X88085241Y-133965363D01*
X87885363Y-134165241D01*
X87728320Y-134400273D01*
X87620147Y-134661426D01*
X87565000Y-134938665D01*
X87565000Y-135221335D01*
X87620147Y-135498574D01*
X87728320Y-135759727D01*
X87885363Y-135994759D01*
X88085241Y-136194637D01*
X88320273Y-136351680D01*
X88330865Y-136356067D01*
X88144869Y-136467615D01*
X87936481Y-136656586D01*
X87768963Y-136882580D01*
X87648754Y-137136913D01*
X87608096Y-137270961D01*
X87730085Y-137493000D01*
X88873000Y-137493000D01*
X88873000Y-137473000D01*
X89127000Y-137473000D01*
X89127000Y-137493000D01*
X90269915Y-137493000D01*
X90391904Y-137270961D01*
X90351246Y-137136913D01*
X90231037Y-136882580D01*
X90063519Y-136656586D01*
X89855131Y-136467615D01*
X89669135Y-136356067D01*
X89679727Y-136351680D01*
X89914759Y-136194637D01*
X90114637Y-135994759D01*
X90271680Y-135759727D01*
X90379853Y-135498574D01*
X90435000Y-135221335D01*
X90435000Y-134938665D01*
X90379853Y-134661426D01*
X90271680Y-134400273D01*
X90114637Y-134165241D01*
X89914759Y-133965363D01*
X89682241Y-133810000D01*
X89914759Y-133654637D01*
X90114637Y-133454759D01*
X90271680Y-133219727D01*
X90379853Y-132958574D01*
X90435000Y-132681335D01*
X90435000Y-132398665D01*
X90379853Y-132121426D01*
X90271680Y-131860273D01*
X90114637Y-131625241D01*
X89916039Y-131426643D01*
X89924482Y-131425812D01*
X90044180Y-131389502D01*
X90154494Y-131330537D01*
X90251185Y-131251185D01*
X90330537Y-131154494D01*
X90389502Y-131044180D01*
X90425812Y-130924482D01*
X90438072Y-130800000D01*
X90438072Y-129200000D01*
X90425812Y-129075518D01*
X90389502Y-128955820D01*
X90330537Y-128845506D01*
X90251185Y-128748815D01*
X90154494Y-128669463D01*
X90044180Y-128610498D01*
X89924482Y-128574188D01*
X89800000Y-128561928D01*
X88200000Y-128561928D01*
X88075518Y-128574188D01*
X87955820Y-128610498D01*
X87845506Y-128669463D01*
X87748815Y-128748815D01*
X87669463Y-128845506D01*
X87610498Y-128955820D01*
X87574188Y-129075518D01*
X87561928Y-129200000D01*
X81127000Y-129200000D01*
X81127000Y-126627000D01*
X91995422Y-126627000D01*
X95191983Y-129823561D01*
G37*
X95191983Y-129823561D02*
X95185000Y-129858665D01*
X95185000Y-130141335D01*
X95240147Y-130418574D01*
X95348320Y-130679727D01*
X95505363Y-130914759D01*
X95705241Y-131114637D01*
X95937759Y-131270000D01*
X95705241Y-131425363D01*
X95505363Y-131625241D01*
X95348320Y-131860273D01*
X95240147Y-132121426D01*
X95185000Y-132398665D01*
X95185000Y-132681335D01*
X95240147Y-132958574D01*
X95348320Y-133219727D01*
X95505363Y-133454759D01*
X95705241Y-133654637D01*
X95937759Y-133810000D01*
X95705241Y-133965363D01*
X95505363Y-134165241D01*
X95348320Y-134400273D01*
X95240147Y-134661426D01*
X95185000Y-134938665D01*
X95185000Y-135221335D01*
X95240147Y-135498574D01*
X95348320Y-135759727D01*
X95505363Y-135994759D01*
X95705241Y-136194637D01*
X95937759Y-136350000D01*
X95705241Y-136505363D01*
X95505363Y-136705241D01*
X95348320Y-136940273D01*
X95240147Y-137201426D01*
X95185000Y-137478665D01*
X95185000Y-137761335D01*
X95240147Y-138038574D01*
X95348320Y-138299727D01*
X95505363Y-138534759D01*
X95705241Y-138734637D01*
X95940273Y-138891680D01*
X96201426Y-138999853D01*
X96478665Y-139055000D01*
X96761335Y-139055000D01*
X97038574Y-138999853D01*
X97299727Y-138891680D01*
X97534759Y-138734637D01*
X97734637Y-138534759D01*
X97891680Y-138299727D01*
X97999853Y-138038574D01*
X98055000Y-137761335D01*
X98055000Y-137478665D01*
X97999853Y-137201426D01*
X97891680Y-136940273D01*
X97734637Y-136705241D01*
X97534759Y-136505363D01*
X97302241Y-136350000D01*
X97534759Y-136194637D01*
X97734637Y-135994759D01*
X97754521Y-135965000D01*
X98053422Y-135965000D01*
X99263470Y-137175049D01*
X99291183Y-137208817D01*
X99324951Y-137236530D01*
X99324953Y-137236532D01*
X99366905Y-137270961D01*
X99425941Y-137319411D01*
X99579687Y-137401589D01*
X99746510Y-137452195D01*
X99876523Y-137465000D01*
X99876533Y-137465000D01*
X99919999Y-137469281D01*
X99963465Y-137465000D01*
X104542546Y-137465000D01*
X104524188Y-137525518D01*
X104511928Y-137650000D01*
X104511928Y-139350000D01*
X104524188Y-139474482D01*
X104560498Y-139594180D01*
X104619463Y-139704494D01*
X104698815Y-139801185D01*
X104746111Y-139840000D01*
X82605802Y-139840000D01*
X82659774Y-139803937D01*
X82803937Y-139659774D01*
X82917205Y-139490256D01*
X82995226Y-139301898D01*
X83035000Y-139101939D01*
X83035000Y-138898061D01*
X82995226Y-138698102D01*
X82917205Y-138509744D01*
X82803937Y-138340226D01*
X82659774Y-138196063D01*
X82490256Y-138082795D01*
X82301898Y-138004774D01*
X82122245Y-137969039D01*
X87608096Y-137969039D01*
X87648754Y-138103087D01*
X87768963Y-138357420D01*
X87936481Y-138583414D01*
X88144869Y-138772385D01*
X88386119Y-138917070D01*
X88650960Y-139011909D01*
X88873000Y-138890624D01*
X88873000Y-137747000D01*
X89127000Y-137747000D01*
X89127000Y-138890624D01*
X89349040Y-139011909D01*
X89613881Y-138917070D01*
X89855131Y-138772385D01*
X90063519Y-138583414D01*
X90231037Y-138357420D01*
X90351246Y-138103087D01*
X90391904Y-137969039D01*
X90269915Y-137747000D01*
X89127000Y-137747000D01*
X88873000Y-137747000D01*
X87730085Y-137747000D01*
X87608096Y-137969039D01*
X82122245Y-137969039D01*
X82101939Y-137965000D01*
X81898061Y-137965000D01*
X81698102Y-138004774D01*
X81509744Y-138082795D01*
X81340226Y-138196063D01*
X81196063Y-138340226D01*
X81127000Y-138443586D01*
X81127000Y-129200000D01*
X87561928Y-129200000D01*
X87561928Y-130800000D01*
X87574188Y-130924482D01*
X87610498Y-131044180D01*
X87669463Y-131154494D01*
X87748815Y-131251185D01*
X87845506Y-131330537D01*
X87955820Y-131389502D01*
X88075518Y-131425812D01*
X88083961Y-131426643D01*
X87885363Y-131625241D01*
X87728320Y-131860273D01*
X87620147Y-132121426D01*
X87565000Y-132398665D01*
X87565000Y-132681335D01*
X87620147Y-132958574D01*
X87728320Y-133219727D01*
X87885363Y-133454759D01*
X88085241Y-133654637D01*
X88317759Y-133810000D01*
X88085241Y-133965363D01*
X87885363Y-134165241D01*
X87728320Y-134400273D01*
X87620147Y-134661426D01*
X87565000Y-134938665D01*
X87565000Y-135221335D01*
X87620147Y-135498574D01*
X87728320Y-135759727D01*
X87885363Y-135994759D01*
X88085241Y-136194637D01*
X88320273Y-136351680D01*
X88330865Y-136356067D01*
X88144869Y-136467615D01*
X87936481Y-136656586D01*
X87768963Y-136882580D01*
X87648754Y-137136913D01*
X87608096Y-137270961D01*
X87730085Y-137493000D01*
X88873000Y-137493000D01*
X88873000Y-137473000D01*
X89127000Y-137473000D01*
X89127000Y-137493000D01*
X90269915Y-137493000D01*
X90391904Y-137270961D01*
X90351246Y-137136913D01*
X90231037Y-136882580D01*
X90063519Y-136656586D01*
X89855131Y-136467615D01*
X89669135Y-136356067D01*
X89679727Y-136351680D01*
X89914759Y-136194637D01*
X90114637Y-135994759D01*
X90271680Y-135759727D01*
X90379853Y-135498574D01*
X90435000Y-135221335D01*
X90435000Y-134938665D01*
X90379853Y-134661426D01*
X90271680Y-134400273D01*
X90114637Y-134165241D01*
X89914759Y-133965363D01*
X89682241Y-133810000D01*
X89914759Y-133654637D01*
X90114637Y-133454759D01*
X90271680Y-133219727D01*
X90379853Y-132958574D01*
X90435000Y-132681335D01*
X90435000Y-132398665D01*
X90379853Y-132121426D01*
X90271680Y-131860273D01*
X90114637Y-131625241D01*
X89916039Y-131426643D01*
X89924482Y-131425812D01*
X90044180Y-131389502D01*
X90154494Y-131330537D01*
X90251185Y-131251185D01*
X90330537Y-131154494D01*
X90389502Y-131044180D01*
X90425812Y-130924482D01*
X90438072Y-130800000D01*
X90438072Y-129200000D01*
X90425812Y-129075518D01*
X90389502Y-128955820D01*
X90330537Y-128845506D01*
X90251185Y-128748815D01*
X90154494Y-128669463D01*
X90044180Y-128610498D01*
X89924482Y-128574188D01*
X89800000Y-128561928D01*
X88200000Y-128561928D01*
X88075518Y-128574188D01*
X87955820Y-128610498D01*
X87845506Y-128669463D01*
X87748815Y-128748815D01*
X87669463Y-128845506D01*
X87610498Y-128955820D01*
X87574188Y-129075518D01*
X87561928Y-129200000D01*
X81127000Y-129200000D01*
X81127000Y-126627000D01*
X91995422Y-126627000D01*
X95191983Y-129823561D01*
G36*
X104873000Y-135695000D02*
G01*
X100286579Y-135695000D01*
X99076534Y-134484956D01*
X99048817Y-134451183D01*
X98914059Y-134340589D01*
X98760313Y-134258411D01*
X98593490Y-134207805D01*
X98463477Y-134195000D01*
X98463469Y-134195000D01*
X98420000Y-134190719D01*
X98376531Y-134195000D01*
X97754521Y-134195000D01*
X97734637Y-134165241D01*
X97534759Y-133965363D01*
X97302241Y-133810000D01*
X97534759Y-133654637D01*
X97734637Y-133454759D01*
X97891680Y-133219727D01*
X97999853Y-132958574D01*
X98055000Y-132681335D01*
X98055000Y-132398665D01*
X98048017Y-132363561D01*
X103395038Y-127016541D01*
X103428806Y-126988828D01*
X103539400Y-126854070D01*
X103621578Y-126700324D01*
X103643821Y-126627000D01*
X104873000Y-126627000D01*
X104873000Y-135695000D01*
G37*
X104873000Y-135695000D02*
X100286579Y-135695000D01*
X99076534Y-134484956D01*
X99048817Y-134451183D01*
X98914059Y-134340589D01*
X98760313Y-134258411D01*
X98593490Y-134207805D01*
X98463477Y-134195000D01*
X98463469Y-134195000D01*
X98420000Y-134190719D01*
X98376531Y-134195000D01*
X97754521Y-134195000D01*
X97734637Y-134165241D01*
X97534759Y-133965363D01*
X97302241Y-133810000D01*
X97534759Y-133654637D01*
X97734637Y-133454759D01*
X97891680Y-133219727D01*
X97999853Y-132958574D01*
X98055000Y-132681335D01*
X98055000Y-132398665D01*
X98048017Y-132363561D01*
X103395038Y-127016541D01*
X103428806Y-126988828D01*
X103539400Y-126854070D01*
X103621578Y-126700324D01*
X103643821Y-126627000D01*
X104873000Y-126627000D01*
X104873000Y-135695000D01*
G36*
X98054130Y-129854292D02*
G01*
X97999853Y-129581426D01*
X97891680Y-129320273D01*
X97734637Y-129085241D01*
X97534759Y-128885363D01*
X97299727Y-128728320D01*
X97038574Y-128620147D01*
X96761335Y-128565000D01*
X96478665Y-128565000D01*
X96443561Y-128571983D01*
X94498578Y-126627000D01*
X101281421Y-126627000D01*
X98054130Y-129854292D01*
G37*
X98054130Y-129854292D02*
X97999853Y-129581426D01*
X97891680Y-129320273D01*
X97734637Y-129085241D01*
X97534759Y-128885363D01*
X97299727Y-128728320D01*
X97038574Y-128620147D01*
X96761335Y-128565000D01*
X96478665Y-128565000D01*
X96443561Y-128571983D01*
X94498578Y-126627000D01*
X101281421Y-126627000D01*
X98054130Y-129854292D01*
%TD*%
M02*
