%TF.GenerationSoftware,KiCad,Pcbnew,(5.1.6)-1*%
%TF.CreationDate,2023-06-25T00:19:37-07:00*%
%TF.ProjectId,tremolo,7472656d-6f6c-46f2-9e6b-696361645f70,rev?*%
%TF.SameCoordinates,Original*%
%TF.FileFunction,Soldermask,Top*%
%TF.FilePolarity,Negative*%
%FSLAX46Y46*%
G04 Gerber Fmt 4.6, Leading zero omitted, Abs format (unit mm)*
G04 Created by KiCad (PCBNEW (5.1.6)-1) date 2023-06-25 00:19:37*
%MOMM*%
%LPD*%
G01*
G04 APERTURE LIST*
%ADD10R,1.800000X1.800000*%
%ADD11C,1.250000*%
%ADD12R,1.700000X1.700000*%
%ADD13C,1.700000*%
%ADD14O,1.700000X1.700000*%
%ADD15C,1.624000*%
%ADD16O,1.800000X1.800000*%
%ADD17C,4.100000*%
%ADD18C,1.900000*%
%ADD19R,1.900000X1.900000*%
G04 APERTURE END LIST*
D10*
%TO.C,J5*%
X106000000Y-138500000D03*
%TD*%
%TO.C,J4*%
X77500000Y-137500000D03*
%TD*%
%TO.C,U3*%
G36*
G01*
X115687500Y-122875000D02*
X116312500Y-122875000D01*
G75*
G02*
X116625000Y-123187500I0J-312500D01*
G01*
X116625000Y-123812500D01*
G75*
G02*
X116312500Y-124125000I-312500J0D01*
G01*
X115687500Y-124125000D01*
G75*
G02*
X115375000Y-123812500I0J312500D01*
G01*
X115375000Y-123187500D01*
G75*
G02*
X115687500Y-122875000I312500J0D01*
G01*
G37*
D11*
X116640000Y-138500000D03*
X111560000Y-138500000D03*
X112200000Y-123500000D03*
%TD*%
D12*
%TO.C,C5*%
X70500000Y-128250000D03*
D13*
X70500000Y-133250000D03*
%TD*%
D14*
%TO.C,U4*%
X96620000Y-130000000D03*
X89000000Y-137620000D03*
X96620000Y-132540000D03*
X89000000Y-135080000D03*
X96620000Y-135080000D03*
X89000000Y-132540000D03*
X96620000Y-137620000D03*
D12*
X89000000Y-130000000D03*
%TD*%
D14*
%TO.C,U1*%
X85000000Y-114880000D03*
X100240000Y-122500000D03*
X87540000Y-114880000D03*
X97700000Y-122500000D03*
X90080000Y-114880000D03*
X95160000Y-122500000D03*
X92620000Y-114880000D03*
X92620000Y-122500000D03*
X95160000Y-114880000D03*
X90080000Y-122500000D03*
X97700000Y-114880000D03*
X87540000Y-122500000D03*
X100240000Y-114880000D03*
D12*
X85000000Y-122500000D03*
%TD*%
D15*
%TO.C,SW4*%
X110500000Y-107650000D03*
X103108964Y-108061467D03*
X107438533Y-97608964D03*
X117891036Y-101938533D03*
X107438533Y-112391036D03*
X103108964Y-101938533D03*
X113561467Y-97608964D03*
X117891036Y-108061467D03*
X113561467Y-112391036D03*
%TD*%
%TO.C,SW3*%
X74500000Y-107650000D03*
X67108964Y-108061467D03*
X71438533Y-97608964D03*
X81891036Y-101938533D03*
X71438533Y-112391036D03*
X67108964Y-101938533D03*
X77561467Y-97608964D03*
X81891036Y-108061467D03*
X77561467Y-112391036D03*
%TD*%
D16*
%TO.C,SW1*%
X70460000Y-137500000D03*
D10*
X73000000Y-137500000D03*
%TD*%
D17*
%TO.C,RV4*%
X87750000Y-105500000D03*
X97250000Y-105500000D03*
D18*
X90000000Y-98000000D03*
X92500000Y-98000000D03*
X95000000Y-98000000D03*
%TD*%
D17*
%TO.C,RV3*%
X105750000Y-90500000D03*
X115250000Y-90500000D03*
D18*
X108000000Y-83000000D03*
X110500000Y-83000000D03*
X113000000Y-83000000D03*
%TD*%
D17*
%TO.C,RV2*%
X87750000Y-90500000D03*
X97250000Y-90500000D03*
D18*
X90000000Y-83000000D03*
X92500000Y-83000000D03*
X95000000Y-83000000D03*
%TD*%
D17*
%TO.C,RV1*%
X69750000Y-90500000D03*
X79250000Y-90500000D03*
D18*
X72000000Y-83000000D03*
X74500000Y-83000000D03*
X77000000Y-83000000D03*
%TD*%
D10*
%TO.C,J1*%
X77500000Y-129500000D03*
D16*
X77500000Y-132040000D03*
%TD*%
D18*
%TO.C,D2*%
X116500000Y-117790000D03*
D19*
X116500000Y-115250000D03*
%TD*%
M02*
