M48
; DRILL file {KiCad (5.1.6)-1} date 06/25/23 00:19:25
; FORMAT={-:-/ absolute / inch / decimal}
; #@! TF.CreationDate,2023-06-25T00:19:25-07:00
; #@! TF.GenerationSoftware,Kicad,Pcbnew,(5.1.6)-1
; #@! TF.FileFunction,Plated,1,2,PTH
FMAT,2
INCH
T1C0.0157
T2C0.0217
T3C0.0300
T4C0.0315
T5C0.0354
T6C0.0394
%
G90
G05
T1
X2.8248Y-3.7008
X2.9134Y-4.0945
X3.1102Y-4.6555
X3.2283Y-3.7008
X3.2283Y-5.0
X3.2283Y-5.1575
X3.2283Y-5.2756
X3.2283Y-5.4724
X3.2874Y-3.2677
X3.3071Y-4.4094
X3.3661Y-4.685
X3.3858Y-3.7008
X3.4449Y-5.0
X3.5827Y-5.1772
X3.5827Y-5.4724
X3.6024Y-5.0
X3.6417Y-4.1339
X3.7303Y-5.2657
X3.7303Y-5.4724
X3.7598Y-4.9213
X3.7598Y-5.0
X3.8976Y-5.4724
X3.9173Y-4.4094
X3.9173Y-4.9213
X3.9173Y-5.0
X3.9665Y-5.1575
X3.9764Y-3.2677
X3.9764Y-3.7992
X4.0157Y-5.4724
X4.0354Y-4.1339
X4.0551Y-4.3504
X4.0945Y-4.9213
X4.0945Y-5.0591
X4.0945Y-5.2362
X4.2126Y-4.9213
X4.252Y-4.7244
X4.3701Y-4.0945
X4.6654Y-3.8189
X4.6654Y-4.3701
T2
X4.3921Y-5.4528
X4.4173Y-4.8622
X4.5669Y-4.8622
X4.5921Y-5.4528
T3
X2.6421Y-4.0133
X2.6421Y-4.2544
X2.8125Y-3.8429
X2.8125Y-4.4248
X2.9331Y-4.2382
X3.0536Y-3.8429
X3.0536Y-4.4248
X3.2241Y-4.0133
X3.2241Y-4.2544
X4.0594Y-4.0133
X4.0594Y-4.2544
X4.2299Y-3.8429
X4.2299Y-4.4248
X4.3504Y-4.2382
X4.4709Y-3.8429
X4.4709Y-4.4248
X4.6414Y-4.0133
X4.6414Y-4.2544
T4
X3.3465Y-4.5228
X3.3465Y-4.8228
X3.4465Y-4.5228
X3.4465Y-4.8228
X3.5465Y-4.5228
X3.5465Y-4.8228
X3.6465Y-4.5228
X3.6465Y-4.8228
X3.7465Y-4.5228
X3.7465Y-4.8228
X3.8465Y-4.5228
X3.8465Y-4.8228
X3.9465Y-4.5228
X3.9465Y-4.8228
X3.5039Y-5.1181
X3.5039Y-5.2181
X3.5039Y-5.3181
X3.5039Y-5.4181
X3.8039Y-5.1181
X3.8039Y-5.2181
X3.8039Y-5.3181
X3.8039Y-5.4181
X2.7756Y-5.0492
X2.7756Y-5.2461
T5
X4.5866Y-4.5374
X4.5866Y-4.6374
T6
X4.1732Y-5.4528
X3.5433Y-3.8583
X3.6417Y-3.8583
X3.7402Y-3.8583
X4.252Y-3.2677
X4.3504Y-3.2677
X4.4488Y-3.2677
X2.774Y-5.4134
X2.874Y-5.4134
X3.0512Y-5.0984
X3.0512Y-5.1984
X3.5433Y-3.2677
X3.6417Y-3.2677
X3.7402Y-3.2677
X3.0512Y-5.4134
X2.8346Y-3.2677
X2.9331Y-3.2677
X3.0315Y-3.2677
T0
M30
